<?xml version="1.0" encoding="utf-8"?>
<COLLADA xmlns="http://www.collada.org/2005/11/COLLADASchema" version="1.4.1" xmlns:xsi="http://www.w3.org/2001/XMLSchema-instance">
  <asset>
    <contributor>
      <author>Blender User</author>
      <authoring_tool>Blender 4.5.8 LTS commit date:2026-03-16, commit time:16:54, hash:d7359176d0d3</authoring_tool>
    </contributor>
    <created>2026-04-09T15:16:21</created>
    <modified>2026-04-09T15:16:21</modified>
    <unit name="meter" meter="1"/>
    <up_axis>Z_UP</up_axis>
  </asset>
  <library_cameras>
    <camera id="Camera-camera" name="Camera">
      <optics>
        <technique_common>
          <perspective>
            <xfov sid="xfov">39.59775</xfov>
            <aspect_ratio>1.777778</aspect_ratio>
            <znear sid="znear">0.1</znear>
            <zfar sid="zfar">100</zfar>
          </perspective>
        </technique_common>
      </optics>
      <extra>
        <technique profile="blender">
          <shiftx sid="shiftx" type="float">0</shiftx>
          <shifty sid="shifty" type="float">0</shifty>
          <dof_distance sid="dof_distance" type="float">10</dof_distance>
        </technique>
      </extra>
    </camera>
  </library_cameras>
  <library_lights>
    <light id="Light-light" name="Light">
      <technique_common>
        <point>
          <color sid="color">1000 1000 1000</color>
          <constant_attenuation>1</constant_attenuation>
          <linear_attenuation>0</linear_attenuation>
          <quadratic_attenuation>0</quadratic_attenuation>
        </point>
      </technique_common>
      <extra>
        <technique profile="blender">
          <type sid="type" type="int">0</type>
          <flag sid="flag" type="int">0</flag>
          <mode sid="mode" type="int">2097153</mode>
          <red sid="red" type="float">1</red>
          <green sid="green" type="float">1</green>
          <blue sid="blue" type="float">1</blue>
          <energy sid="blender_energy" type="float">1000</energy>
          <spotsize sid="spotsize" type="float">75</spotsize>
          <spotblend sid="spotblend" type="float">0.15</spotblend>
          <clipsta sid="clipsta" type="float">0.04999995</clipsta>
          <clipend sid="clipend" type="float">40</clipend>
          <radius sid="radius" type="float">0.1</radius>
          <area_shape sid="area_shape" type="int">1</area_shape>
          <area_size sid="area_size" type="float">0.1</area_size>
          <area_sizey sid="area_sizey" type="float">0.1</area_sizey>
          <area_sizez sid="area_sizez" type="float">1</area_sizez>
        </technique>
      </extra>
    </light>
  </library_lights>
  <library_effects>
    <effect id="MilkCartn-effect">
      <profile_COMMON>
        <newparam sid="MilkCartonAlbedo_png-surface">
          <surface type="2D">
            <init_from>MilkCartonAlbedo_png</init_from>
          </surface>
        </newparam>
        <newparam sid="MilkCartonAlbedo_png-sampler">
          <sampler2D>
            <source>MilkCartonAlbedo_png-surface</source>
          </sampler2D>
        </newparam>
        <technique sid="common">
          <lambert>
            <emission>
              <color sid="emission">0 0 0 1</color>
            </emission>
            <diffuse>
              <texture texture="MilkCartonAlbedo_png-sampler" texcoord="UVChannel_1"/>
            </diffuse>
            <index_of_refraction>
              <float sid="ior">1.5</float>
            </index_of_refraction>
          </lambert>
        </technique>
      </profile_COMMON>
    </effect>
  </library_effects>
  <library_images>
    <image id="MilkCartonAlbedo_png" name="MilkCartonAlbedo_png">
      <init_from>MilkCartonAlbedo.png</init_from>
    </image>
  </library_images>
  <library_materials>
    <material id="MilkCartn-material" name="MilkCartn">
      <instance_effect url="#MilkCartn-effect"/>
    </material>
  </library_materials>
  <library_geometries>
    <geometry id="Mesh-mesh" name="Mesh">
      <mesh>
        <source id="Mesh-mesh-positions">
          <float_array id="Mesh-mesh-positions-array" count="522">-1.377953 -1.377953 -4.553029 1.377953 -1.377953 -4.553029 -1.377953 1.377953 -4.553029 1.377953 1.377953 -4.553029 -1.377953 -1.377953 3.084766 1.377953 -1.377953 3.084766 -1.377953 1.377953 3.084766 1.377953 1.377953 3.084766 -1.377953 0 -4.553029 1.377953 0 -4.553029 1.377953 0 3.084766 -1.377953 0 3.084766 0 1.377953 -4.553029 0 -1.377953 -4.553029 0 -1.377953 3.863004 0 1.377953 3.863004 0 0 -4.553029 0 0 4.553029 1.377953 -1.377953 3.046577 -1.377953 -1.377953 3.046577 1.377953 1.377953 3.046577 -1.377953 1.377953 3.046577 1.377953 0 3.046577 -1.377953 0 3.046577 0 -1.377953 3.046577 0 1.377953 3.046577 0 -1.377953 3.817788 -1.216148 -1.377953 3.098002 -1.215343 -1.377953 3.085947 0 -1.377953 3.085947 1.215343 -1.377953 3.085947 1.216148 -1.377953 3.098002 0 1.377953 3.817788 1.216148 1.377953 3.098002 1.215343 1.377953 3.085947 0 1.377953 3.085947 -1.215343 1.377953 3.085947 -1.216148 1.377953 3.098002 0 -0.06273627 3.788921 0 0.06273627 3.788921 0.03698825 1.377953 3.860762 0.03698825 0 3.860762 0.03698825 -1.377953 3.860762 0.05708515 -1.377953 3.785398 0.05708509 1.377953 3.785398 -0.03698825 -1.377953 3.860762 -0.03698825 1.377953 3.860762 -0.03698825 0 3.860762 -0.05708509 -1.377953 3.785398 -0.05708515 1.377953 3.785398 -0.03698825 -1.290851 4.475144 0 -1.290851 4.475144 0.03698825 -1.290851 4.475144 0.03698825 0 4.553029 0.03698825 1.290852 4.475144 0 1.290852 4.475144 -0.03698825 1.290852 4.475144 -0.03698825 0 4.553029 -0.03698825 -1.377953 3.941279 -0.03698825 -1.377953 4.253769 0 -1.377953 3.94326 0 -1.377953 4.254738 0.03698825 -1.377953 3.941279 0.03698825 -1.377953 4.253769 0.03698825 0 3.941279 0.03698825 0 4.253769 0.03698825 1.377953 3.941279 0.03698825 1.377953 4.253769 0 1.377953 3.94326 0 1.377953 4.254738 -0.03698825 1.377953 3.941279 -0.03698825 1.377953 4.253769 -0.03698825 0 3.941279 -0.03698825 0 4.253769 0.05667328 -1.377953 4.253769 0.05667328 -1.377953 3.941279 0.05667328 0 3.941279 0.05667328 1.377953 3.941279 0.05667328 1.377953 4.253769 0.05667328 0 4.253769 -0.05667328 -1.377953 3.941279 -0.05667328 -1.377953 4.253769 -0.05667328 0 4.253769 -0.05667328 1.377953 4.253769 -0.05667328 1.377953 3.941279 -0.05667328 0 3.941279 1.052356 3.92704e-6 3.253953 1.038066 0.1253353 3.262203 0.9961711 0.2421256 3.286391 0.9295259 0.3424158 3.324869 0.842672 0.4193711 3.375014 0.7415287 0.4677472 3.433409 0.6329885 0.4842474 3.496075 0.5244483 0.4677472 3.558741 0.4233049 0.4193711 3.617135 0.3364512 0.3424159 3.66728 0.2698059 0.2421258 3.705758 0.2279109 0.1253355 3.729946 0.2136213 4.1153e-6 3.738196 0.2279108 -0.1253273 3.729946 0.2698057 -0.2421176 3.705758 0.3364509 -0.3424077 3.667281 0.4233047 -0.4193631 3.617136 0.5244481 -0.4677393 3.558741 0.6329883 -0.4842395 3.496075 0.7415285 -0.4677394 3.433409 0.8426718 -0.4193633 3.375014 0.9295256 -0.3424081 3.324869 0.9961709 -0.2421181 3.286391 1.038066 -0.1253278 3.262203 1.277505 3.92704e-6 3.643923 1.263215 0.1253353 3.652173 1.22132 0.2421256 3.676361 1.154675 0.3424158 3.714838 1.067821 0.4193711 3.764983 0.9666777 0.4677472 3.823379 0.8581375 0.4842474 3.886044 0.7495973 0.4677472 3.948709 0.648454 0.4193711 4.007105 0.5616002 0.3424159 4.05725 0.4949549 0.2421258 4.095728 0.45306 0.1253355 4.119916 0.4387703 4.1153e-6 4.128166 0.4530599 -0.1253273 4.119916 0.4949548 -0.2421176 4.095728 0.5616 -0.3424077 4.05725 0.6484538 -0.4193631 4.007105 0.7495971 -0.4677393 3.94871 0.8581373 -0.4842395 3.886044 0.9666775 -0.4677394 3.823379 1.067821 -0.4193633 3.764983 1.154675 -0.3424081 3.714838 1.22132 -0.2421181 3.676361 1.263215 -0.1253278 3.652173 -1.377953 -1.123032 -4.553029 1.377953 -1.123032 3.084766 1.377953 -1.123031 -4.553029 -1.377953 -1.123031 3.084766 0 -1.123031 -4.553029 0 -1.123032 4.553029 1.377953 -1.123031 3.046577 -1.377953 -1.123032 3.046577 0.03698825 -1.123032 3.860762 -0.03698825 -1.123031 3.860762 0.03698825 -1.123032 4.553029 -0.03698825 -1.123031 4.553029 0.03698825 -1.123031 4.253769 0.03698825 -1.123032 3.941279 -0.03698825 -1.123032 4.253769 -0.03698825 -1.123031 3.941279 0.05667328 -1.123032 3.941279 0.05667328 -1.123031 4.253769 -0.05667328 -1.123032 4.253769 -0.05667328 -1.123031 3.941279 1.377953 1.123032 -4.553029 -1.377953 1.123032 3.084766 -1.377953 1.123031 -4.553029 1.377953 1.123031 3.084766 0 1.123032 -4.553029 0 1.123032 4.553029 -1.377953 1.123031 3.046577 1.377953 1.123032 3.046577 0.03698825 1.123031 3.860762 -0.03698825 1.123032 3.860762 0.03698825 1.123031 4.553029 -0.03698825 1.123032 4.553029 0.03698825 1.123032 4.253769 0.03698825 1.123031 3.941279 -0.03698825 1.123031 4.253769 -0.03698825 1.123032 3.941279 0.05667328 1.123031 3.941279 0.05667328 1.123032 4.253769 -0.05667328 1.123031 4.253769 -0.05667328 1.123032 3.941279</float_array>
          <technique_common>
            <accessor source="#Mesh-mesh-positions-array" count="174" stride="3">
              <param name="X" type="float"/>
              <param name="Y" type="float"/>
              <param name="Z" type="float"/>
            </accessor>
          </technique_common>
        </source>
        <source id="Mesh-mesh-normals">
          <float_array id="Mesh-mesh-normals-array" count="615">0 0 -1 -0.5008661 0 0.8655248 -0.5008659 0 0.865525 -0.5008657 0 0.865525 -0.5008656 0 0.8655251 0 -1 0 0 -1 0 0 -1 0 1 0 0 0 1 0 0 1 0 0 1 0 -1 0 0 0.5008658 0 0.865525 0.5008657 0 0.8655251 0.5008657 0 0.865525 0.5008658 0 0.865525 0 -0.4209706 0.9070744 0 -0.2155528 0.9764923 -4.73002e-7 -0.2155508 0.9764927 0 -0.4209706 0.9070744 0 -1 2.92631e-7 0 1 2.92631e-7 0 0.4209704 0.9070745 0 0.2155521 0.9764924 4.73001e-7 0.2155503 0.9764928 0 0.4209702 0.9070745 -0.001246333 -0.4736279 0.8807243 0.7206357 -0.6916425 0.04811275 0.505051 -0.7206066 0.475026 -0.004357576 -0.473831 0.8806051 0.001246333 0.4736279 0.8807243 -0.7206357 0.6916425 0.04811275 -0.505051 0.7206066 0.475026 0.004357576 0.473831 0.8806051 -0.003759503 -0.9252628 0.3793083 0 -1 9.10644e-6 0.003759503 0.9252628 0.3793083 0 1 9.10644e-6 0 -1 -2.54031e-7 0 -1 -1.13793e-6 0 -1 7.72867e-7 0 -1 4.55467e-6 0 -1 6.24772e-6 0 -1 0 0 -1 5.26962e-6 0 -1 4.67507e-7 0 -1 6.0687e-6 0 -1 0 0 1 -2.80742e-7 0 1 -1.25172e-6 0 1 7.72867e-7 0 1 4.55467e-6 0 1 6.24633e-6 0 1 0 0 1 5.26962e-6 0 1 4.67507e-7 0 1 6.0687e-6 0 1 0 0.493411 -0.01908594 -0.8695869 -0.5100005 -0.01983183 -0.8599455 -0.493411 0.01908594 -0.8695869 0.5100005 0.01983183 -0.8599455 8.27168e-7 0.2155479 0.9764932 0 0.42097 0.9070746 0.5008657 0 0.8655251 0.5008658 0 0.8655251 0.5008658 0 0.8655251 0.5008659 0 0.8655249 -8.2717e-7 -0.2155483 0.9764932 0 -0.4209707 0.9070743 -0.5008657 0 0.8655251 -0.5008658 0 0.8655251 -0.5008658 0 0.8655251 -0.5008659 0 0.8655249 -0.4934107 -0.01908594 -0.869587 0.5100005 -0.01983183 -0.8599455 0.4934107 0.01908594 -0.869587 -0.5100005 0.01983183 -0.8599455 1 0 0 1 0 0 1 0 0 -1 0 0 -1 0 0 -1 0 0 -1 0 0 -0.005830705 -0.9301184 0.3672137 0 -0.9305613 0.3661361 -0.002512514 -0.9304152 0.3664985 -0.002541303 -0.9300094 0.3675271 0 -0.9300123 0.3675286 0.009591221 -0.9305191 0.3661179 1 0 0 1 0 0 1 0 0 1 0 0 1 0 0 1 0 0 1 0 0 1 0 0 1 0 0 1 0 0 1 0 0 1 0 0 0.005830645 0.9301187 0.3672128 0 0.9305622 0.3661338 0.002512693 0.9304159 0.3664969 0.002541303 0.93001 0.3675255 0 0.9300129 0.3675271 -0.009591221 0.9305194 0.3661172 -1 0 0 -1 0 0 -1 0 0 -1 0 0 -1 0 0 -1 0 0 -1 0 0 -1 0 0 -1 0 0 -1 0 0 -1 0 0 -1 0 0 -1 0 0 0 0 1 0.8660258 -2.10984e-6 -0.4999997 0.8365171 0.2588167 -0.4829628 0.8365159 0.2588216 -0.4829624 0.8660255 2.31556e-6 -0.4999998 0.7500019 0.4999963 -0.4330137 0.7499996 0.5000009 -0.4330124 0.6123745 0.7071044 -0.3535549 0.6123712 0.7071082 -0.3535528 0.4330149 0.866024 -0.2500013 0.43301 0.8660274 -0.2499985 0.2241466 0.965925 -0.1294108 0.224141 0.9659268 -0.129408 2.87532e-6 1 -1.41613e-6 -2.78442e-6 1 1.39939e-6 -0.2241417 0.9659265 0.1294083 -0.224146 0.9659252 0.1294109 -0.4330108 0.8660267 0.2499988 -0.4330147 0.866024 0.2500013 -0.6123702 0.7071095 0.3535519 -0.6123741 0.7071051 0.353554 -0.7499986 0.500003 0.4330116 -0.7500014 0.4999978 0.433013 -0.8365157 0.2588225 0.4829623 -0.8365173 0.2588164 0.4829629 -0.8660256 3.31068e-6 0.5 -0.8660258 -2.67438e-6 0.4999995 -0.836517 -0.2588163 0.4829632 -0.836516 -0.2588217 0.4829623 -0.7500018 -0.4999962 0.433014 -0.7499988 -0.5000025 0.4330118 -0.612375 -0.7071034 0.3535556 -0.6123703 -0.7071092 0.3535526 -0.4330153 -0.8660237 0.2500016 -0.4330104 -0.8660269 0.2499992 -0.2241467 -0.9659251 0.1294109 -0.2241418 -0.9659265 0.1294084 -2.93273e-6 -1 1.46158e-6 2.22466e-6 -1 -1.20323e-6 0.2241411 -0.9659267 -0.1294081 0.2241457 -0.9659252 -0.1294105 0.4330099 -0.8660272 -0.2499985 0.433014 -0.8660245 -0.2500008 0.6123702 -0.7071094 -0.353552 0.6123747 -0.7071042 -0.3535549 0.7499986 -0.500003 -0.4330116 0.750002 -0.4999963 -0.4330136 0.8365159 -0.2588222 -0.4829621 0.8365172 -0.2588164 -0.4829629 0.4999994 0 0.8660258 0.5000004 0 0.8660253 0.4999998 -4.73472e-7 0.8660255 0.4999995 -2.55455e-6 0.8660257 0.4999998 -8.15469e-7 0.8660256 0.4999998 -5.00475e-6 0.8660256 0.4999999 -1.61254e-6 0.8660255 0.5 1.31605e-6 0.8660255 0.5 1.42149e-7 0.8660255 0.5000002 6.16575e-6 0.8660254 0.5000017 1.57537e-5 0.8660245 0.5000012 -1.8014e-6 0.8660248 0.4999995 0 0.8660257 0.5000002 1.26704e-7 0.8660254 0.4999998 -4.55616e-7 0.8660256 0.4999995 2.51855e-7 0.8660257 0.5 1.78762e-6 0.8660255 0.4999998 2.00702e-6 0.8660256 0.5000005 5.03227e-6 0.8660252 0.5000005 1.59744e-6 0.8660252 0.4999991 -1.2019e-6 0.8660259 0.5000004 1.61755e-6 0.8660252 0.4999964 -8.26599e-6 0.8660275 0.4999996 -2.7021e-5 0.8660257 -0.5008658 0 0.865525 1 0 0 1 0 0 0.5008659 0 0.865525 -1 0 0 1 0 0 1 0 0 -1 0 0 -1 0 0</float_array>
          <technique_common>
            <accessor source="#Mesh-mesh-normals-array" count="205" stride="3">
              <param name="X" type="float"/>
              <param name="Y" type="float"/>
              <param name="Z" type="float"/>
            </accessor>
          </technique_common>
        </source>
        <source id="Mesh-mesh-map-0">
          <float_array id="Mesh-mesh-map-0-array" count="1908">0.02884519 0.8617818 0.02884519 0.9111034 0.002020001 0.9111034 0.002020001 0.9111034 0.002020001 0.8617818 0.02884519 0.8617818 0.7144308 0.7935985 0.6924447 0.7935985 0.6924445 0.6599757 0.6924445 0.6599757 0.7144306 0.6599757 0.7144308 0.7935985 0.8332747 0.001240134 0.8332747 0.6566822 0.7144306 0.6566822 0.7144306 0.6566822 0.7144306 0.001240193 0.8332747 0.001240134 0.02335238 0.001240193 0.02335238 0.6566822 0.001366198 0.6566822 0.001366198 0.6566822 0.001366198 0.001240193 0.02335238 0.001240193 0.3578985 0.001240134 0.3578985 0.6566822 0.2390545 0.6566822 0.2390545 0.6566822 0.2390545 0.001240193 0.3578985 0.001240134 0.4987287 0.001240193 0.4987288 0.6566822 0.4767426 0.6566822 0.4767426 0.6566822 0.4767426 0.001240193 0.4987287 0.001240193 0.2651969 0.8617818 0.2651969 0.9111034 0.1470211 0.9111034 0.1470211 0.9111034 0.1470211 0.8617818 0.2651969 0.8617818 0.2170682 0.6599758 0.2170683 0.7935987 0.1202104 0.7935988 0.1202104 0.7935988 0.1202103 0.6599758 0.2170682 0.6599758 0.2170683 0.001240193 0.2170683 0.6566822 0.1202103 0.6566822 0.1202103 0.6566822 0.1202103 0.001240193 0.2170683 0.001240193 0.6924445 0.001240193 0.6924445 0.6566822 0.5955865 0.6566822 0.5955865 0.6566822 0.5955865 0.001240193 0.6924445 0.001240193 0.1470211 0.9604251 0.02884525 0.9604251 0.02884519 0.9111034 0.02884519 0.9111034 0.1470211 0.9111034 0.1470211 0.9604251 0.7144308 0.8630802 0.6924447 0.8630803 0.6924447 0.8598902 0.6924447 0.8598902 0.7144308 0.8598901 0.7144308 0.8630802 0.9521187 0.001240134 0.9521187 0.6566822 0.8332747 0.6566822 0.8332747 0.6566822 0.8332747 0.001240134 0.9521187 0.001240134 0.4767426 0.001240193 0.4767426 0.6566822 0.3578985 0.6566822 0.3578985 0.6566822 0.3578985 0.001240134 0.4767426 0.001240193 0.2920221 0.9604251 0.2651969 0.9604251 0.2651969 0.9111034 0.2651969 0.9111034 0.2920221 0.9111034 0.2920221 0.9604251 0.4767428 0.8567003 0.4987289 0.8567003 0.4987289 0.8598904 0.4987289 0.8598904 0.4767428 0.8598904 0.4767428 0.8567003 0.835738 0.9154443 0.7189344 0.7891257 0.7190117 0.7891257 0.7190117 0.7891257 0.835738 0.7891257 0.835738 0.9154443 0.1202103 0.6599758 0.02335238 0.6599758 0.02335238 0.6566822 0.02335238 0.6566822 0.1202103 0.6566822 0.1202103 0.6599758 0.3586482 0.9145325 0.2427784 0.789224 0.242855 0.789224 0.242855 0.789224 0.3586482 0.789224 0.3586482 0.9145325 0.5955865 0.6599758 0.4987288 0.6599758 0.4987288 0.6566822 0.4987288 0.6566822 0.5955865 0.6566822 0.5955865 0.6599758 0.2390544 0.6599758 0.2170682 0.6599758 0.2170683 0.6566822 0.2170683 0.6566822 0.2390545 0.6566822 0.2390544 0.6599758 0.7144306 0.6599757 0.6924445 0.6599757 0.6924445 0.6566822 0.6924445 0.6566822 0.7144306 0.6566822 0.7144306 0.6599757 0.9525414 0.7891257 0.835738 0.9154443 0.835738 0.7891257 0.835738 0.7891257 0.9524641 0.7891257 0.9525414 0.7891257 0.4745179 0.789224 0.3586482 0.9145325 0.3586482 0.789224 0.3586482 0.789224 0.4744411 0.789224 0.4745179 0.789224 0.8300846 0.726903 0.8283513 0.720403 0.8332747 0.7231966 0.8332747 0.7231966 0.8332747 0.7270964 0.8300846 0.726903 0.7144306 0.6599758 0.7144306 0.6566822 0.7284553 0.6600778 0.7284553 0.6600778 0.7283858 0.6611173 0.7144306 0.6599758 0.7144306 0.6566822 0.8332747 0.6566822 0.8332747 0.6600778 0.8332747 0.6600778 0.7284553 0.6600778 0.7144306 0.6566822 0.8332747 0.6566822 0.9521187 0.6566822 0.9380941 0.6600778 0.9380941 0.6600778 0.8332747 0.6600778 0.8332747 0.6566822 0.9521187 0.6566822 0.9521187 0.6599758 0.9381635 0.6611173 0.9381635 0.6611173 0.9380941 0.6600778 0.9521187 0.6566822 0.8364648 0.726903 0.8381981 0.720403 0.9381635 0.6611173 0.9381635 0.6611173 0.9521187 0.6599758 0.8364648 0.726903 0.3547084 0.726903 0.3529751 0.720403 0.3578985 0.7231966 0.3578985 0.7231966 0.3578985 0.7270964 0.3547084 0.726903 0.2390545 0.6599758 0.2390545 0.6566822 0.2530791 0.6600778 0.2530791 0.6600778 0.2530097 0.6611173 0.2390545 0.6599758 0.2390545 0.6566822 0.3578985 0.6566822 0.3578985 0.6600778 0.3578985 0.6600778 0.2530791 0.6600778 0.2390545 0.6566822 0.3578985 0.6566822 0.4767426 0.6566822 0.462718 0.6600778 0.462718 0.6600778 0.3578985 0.6600778 0.3578985 0.6566822 0.4767426 0.6566822 0.4767426 0.6599758 0.4627875 0.6611173 0.4627875 0.6611173 0.462718 0.6600778 0.4767426 0.6566822 0.3610886 0.726903 0.3628219 0.720403 0.4627875 0.6611173 0.4627875 0.6611173 0.4767426 0.6599758 0.3610886 0.726903 0.7493841 0.9579069 0.7439013 0.9579069 0.7493841 0.8315886 0.8661877 0.9579069 0.7548668 0.9579069 0.7493841 0.8315886 0.4423023 0.9563204 0.4368636 0.9563204 0.4423023 0.831012 0.558172 0.9563204 0.4477412 0.9563204 0.4423023 0.831012 0.4767428 0.8598904 0.4987289 0.8598904 0.4987289 0.8630805 0.4987289 0.8630805 0.4767428 0.8630805 0.4767428 0.8598904 0.001366198 0.6599758 0.02335238 0.6599758 0.02335244 0.7935988 0.02335244 0.7935988 0.001366257 0.7935988 0.001366198 0.6599758 0.8364648 0.726903 0.8332747 0.7270964 0.8332747 0.7231966 0.8332747 0.7231966 0.8381981 0.720403 0.8364648 0.726903 0.3547084 0.726903 0.2390545 0.6599758 0.2530097 0.6611173 0.2530097 0.6611173 0.3529751 0.720403 0.3547084 0.726903 0.7144308 0.8598901 0.6924447 0.8598902 0.6924447 0.8567 0.6924447 0.8567 0.7144308 0.8567 0.7144308 0.8598901 0.4767426 0.6599758 0.4987288 0.6599758 0.4987288 0.7935987 0.4987288 0.7935987 0.4767427 0.7935988 0.4767426 0.6599758 0.8300846 0.726903 0.7144306 0.6599758 0.7283858 0.6611173 0.7283858 0.6611173 0.8283513 0.720403 0.8300846 0.726903 0.3610886 0.726903 0.3578985 0.7270964 0.3578985 0.7231966 0.3578985 0.7231966 0.3628219 0.720403 0.3610886 0.726903 0.7548668 0.9579069 0.7493841 0.9579069 0.7493841 0.8315886 0.7439013 0.9579069 0.6325807 0.9579067 0.7493841 0.8315886 0.4477412 0.9563204 0.4423023 0.9563204 0.4423023 0.831012 0.4368636 0.9563204 0.3264327 0.9563204 0.4423023 0.831012 0.8332747 0.7340182 0.8332747 0.7608822 0.8300846 0.7607986 0.8300846 0.7607986 0.8300846 0.7338474 0.8332747 0.7340182 0.8364648 0.7607986 0.8332747 0.7608822 0.8332747 0.7340182 0.8332747 0.7340182 0.8364648 0.7338474 0.8364648 0.7607986 0.1202103 0.8291922 0.02335244 0.8291922 0.02335244 0.8022409 0.02335244 0.8022409 0.1202103 0.8022409 0.1202103 0.8291922 0.2390543 0.8291922 0.2170682 0.8291922 0.2170682 0.8022409 0.2170682 0.8022409 0.2390543 0.8022409 0.2390543 0.8291922 0.3578985 0.7340182 0.3578985 0.7608822 0.3547084 0.7607986 0.3547084 0.7607986 0.3547084 0.7338474 0.3578985 0.7340182 0.3610886 0.7607986 0.3578985 0.7608822 0.3578985 0.7340182 0.3578985 0.7340182 0.3610886 0.7338474 0.3610886 0.7607986 0.5955867 0.8291922 0.4987289 0.8291923 0.4987288 0.802241 0.4987288 0.802241 0.5955867 0.8022409 0.5955867 0.8291922 0.7144309 0.829192 0.6924447 0.8291921 0.6924447 0.8022407 0.6924447 0.8022407 0.7144308 0.8022407 0.7144309 0.829192 0.8332747 0.7866089 0.8300846 0.7866089 0.8300846 0.7607986 0.8300846 0.7607986 0.8332747 0.7608822 0.8332747 0.7866089 0.8300846 0.7338474 0.8300846 0.726903 0.8332747 0.7270964 0.8332747 0.7270964 0.8332747 0.7340182 0.8300846 0.7338474 0.8364648 0.7866089 0.8332747 0.7866089 0.8332747 0.7608822 0.8332747 0.7608822 0.8364648 0.7607986 0.8364648 0.7866089 0.8332747 0.7270964 0.8364648 0.726903 0.8364648 0.7338474 0.8364648 0.7338474 0.8332747 0.7340182 0.8332747 0.7270964 0.1202103 0.8567003 0.02335238 0.8567003 0.02335238 0.83089 0.02335238 0.83089 0.1202103 0.83089 0.1202103 0.8567003 0.001366257 0.7935988 0.02335244 0.7935988 0.02335244 0.800543 0.02335244 0.800543 0.001366257 0.800543 0.001366257 0.7935988 0.2390543 0.8567003 0.2170682 0.8567003 0.2170682 0.83089 0.2170682 0.83089 0.2390543 0.83089 0.2390543 0.8567003 0.1202104 0.7935988 0.2170683 0.7935987 0.2170683 0.800543 0.2170683 0.800543 0.1202104 0.800543 0.1202104 0.7935988 0.3578985 0.7866089 0.3547084 0.7866089 0.3547084 0.7607986 0.3547084 0.7607986 0.3578985 0.7608822 0.3578985 0.7866089 0.3547084 0.7338474 0.3547084 0.726903 0.3578985 0.7270964 0.3578985 0.7270964 0.3578985 0.7340182 0.3547084 0.7338474 0.3610886 0.7866089 0.3578985 0.7866089 0.3578985 0.7608822 0.3578985 0.7608822 0.3610886 0.7607986 0.3610886 0.7866089 0.3578985 0.7270964 0.3610886 0.726903 0.3610886 0.7338474 0.3610886 0.7338474 0.3578985 0.7340182 0.3578985 0.7270964 0.5955867 0.8567001 0.4987289 0.8567003 0.4987289 0.8308899 0.4987289 0.8308899 0.5955867 0.8308898 0.5955867 0.8567001 0.4767427 0.7935988 0.4987288 0.7935987 0.4987288 0.8005431 0.4987288 0.8005431 0.4767427 0.8005432 0.4767427 0.7935988 0.7144308 0.8567 0.6924447 0.8567 0.6924447 0.8308897 0.6924447 0.8308897 0.7144308 0.8308897 0.7144308 0.8567 0.5955867 0.7935986 0.6924447 0.7935985 0.6924447 0.8005429 0.6924447 0.8005429 0.5955867 0.800543 0.5955867 0.7935986 0.8364648 0.7607986 0.8364648 0.7338474 0.8381626 0.7338474 0.8381626 0.7338474 0.8381626 0.7607986 0.8364648 0.7607986 0.02335244 0.800543 0.02335244 0.8022409 0.001366317 0.8022409 0.001366317 0.8022409 0.001366257 0.800543 0.02335244 0.800543 0.2170683 0.800543 0.2170682 0.8022409 0.1202103 0.8022409 0.1202103 0.8022409 0.1202104 0.800543 0.2170683 0.800543 0.3547084 0.7338474 0.3547084 0.7607986 0.3530107 0.7607986 0.3530107 0.7607986 0.3530107 0.7338474 0.3547084 0.7338474 0.2170682 0.83089 0.2170682 0.8291922 0.2390543 0.8291922 0.2390543 0.8291922 0.2390543 0.83089 0.2170682 0.83089 0.02335238 0.83089 0.02335244 0.8291922 0.1202103 0.8291922 0.1202103 0.8291922 0.1202103 0.83089 0.02335238 0.83089 0.8300846 0.7338474 0.8300846 0.7607986 0.8283867 0.7607986 0.8283867 0.7607986 0.8283867 0.7338474 0.8300846 0.7338474 0.6924447 0.8308897 0.6924447 0.8291921 0.7144309 0.829192 0.7144309 0.829192 0.7144308 0.8308897 0.6924447 0.8308897 0.4987289 0.8308899 0.4987289 0.8291923 0.5955867 0.8291922 0.5955867 0.8291922 0.5955867 0.8308898 0.4987289 0.8308899 0.3610886 0.7607986 0.3610886 0.7338474 0.3627865 0.7338474 0.3627865 0.7338474 0.3627865 0.7607986 0.3610886 0.7607986 0.4987288 0.8005431 0.4987288 0.802241 0.4767427 0.802241 0.4767427 0.802241 0.4767427 0.8005432 0.4987288 0.8005431 0.6924447 0.8005429 0.6924447 0.8022407 0.5955867 0.8022409 0.5955867 0.8022409 0.5955867 0.800543 0.6924447 0.8005429 0.9987754 0.7413105 0.9987754 0.7536982 0.9563655 0.7536982 0.9563655 0.7536982 0.9563655 0.7413105 0.9987754 0.7413105 0.9987754 0.7536982 0.9987754 0.7652822 0.9563655 0.7652822 0.9563655 0.7652822 0.9563655 0.7536982 0.9987754 0.7536982 0.9987754 0.7652822 0.9987754 0.7777564 0.9563655 0.7777564 0.9563655 0.7777564 0.9563655 0.7652822 0.9987754 0.7652822 0.9987754 0.7777564 0.9987754 0.7876526 0.9563655 0.7876526 0.9563655 0.7876526 0.9563655 0.7777564 0.9987754 0.7777564 0.9987754 0.7876526 0.9987754 0.799177 0.9563655 0.799177 0.9563655 0.799177 0.9563655 0.7876526 0.9987754 0.7876526 0.9987754 0.799177 0.9987754 0.8115445 0.9563655 0.8115445 0.9563655 0.8115445 0.9563655 0.799177 0.9987754 0.799177 0.9987754 0.8115445 0.9987754 0.8239119 0.9563655 0.8239119 0.9563655 0.8239119 0.9563655 0.8115445 0.9987754 0.8115445 0.9987754 0.8239119 0.9987754 0.8354364 0.9563655 0.8354364 0.9563655 0.8354364 0.9563655 0.8239119 0.9987754 0.8239119 0.9987754 0.8354364 0.9987754 0.8453327 0.9563655 0.8453327 0.9563655 0.8453327 0.9563655 0.8354364 0.9987754 0.8354364 0.9987754 0.8453327 0.9987754 0.8578068 0.9563655 0.8578068 0.9563655 0.8578068 0.9563655 0.8453327 0.9987754 0.8453327 0.9987754 0.8578068 0.9987754 0.8693906 0.9563655 0.8693906 0.9563655 0.8693906 0.9563655 0.8578068 0.9987754 0.8578068 0.9987754 0.8693906 0.9987754 0.8817784 0.9563655 0.8817784 0.9563655 0.8817784 0.9563655 0.8693906 0.9987754 0.8693906 0.9987754 0.8817784 0.9987754 0.8941254 0.9563655 0.8941254 0.9563655 0.8941254 0.9563655 0.8817784 0.9987754 0.8817784 0.9987754 0.8941254 0.9987754 0.9055905 0.9563655 0.9055905 0.9563655 0.9055905 0.9563655 0.8941254 0.9987754 0.8941254 0.9987754 0.9055905 0.9987754 0.9180643 0.9563655 0.9180643 0.9563655 0.9180643 0.9563655 0.9055905 0.9987754 0.9055905 0.9987754 0.9180643 0.9987754 0.9279608 0.9563655 0.9279608 0.9563655 0.9279608 0.9563655 0.9180643 0.9987754 0.9180643 0.9987754 0.9279608 0.9987754 0.9394854 0.9563655 0.9394854 0.9563655 0.9394854 0.9563655 0.9279608 0.9987754 0.9279608 0.9987754 0.9394854 0.9987754 0.9518526 0.9563655 0.9518526 0.9563655 0.9518526 0.9563655 0.9394854 0.9987754 0.9394854 0.9987754 0.9518526 0.9987754 0.9642199 0.9563655 0.9642199 0.9563655 0.9642199 0.9563655 0.9518526 0.9987754 0.9518526 0.9987754 0.9642199 0.9987754 0.9757446 0.9563655 0.9757446 0.9563655 0.9757446 0.9563655 0.9642199 0.9987754 0.9642199 0.9987754 0.9757446 0.9987754 0.985641 0.9563655 0.985641 0.9563655 0.985641 0.9563655 0.9757446 0.9987754 0.9757446 0.9987754 0.985641 0.9987754 0.9981151 0.9563655 0.9981151 0.9563655 0.9981151 0.9563655 0.985641 0.9987754 0.985641 0.9987754 0.7174984 0.9987754 0.7289634 0.9563655 0.7289634 0.9563655 0.7289634 0.9563655 0.7174984 0.9987754 0.7174984 0.9987754 0.7289634 0.9987754 0.7413105 0.9563655 0.7413105 0.9563655 0.7413105 0.9563655 0.7289634 0.9987754 0.7289634 0.8906912 0.8708931 0.9039825 0.971849 0.8906912 0.9700992 0.8906912 0.9700992 0.878306 0.8760233 0.8906912 0.8708931 0.878306 0.8760233 0.8906912 0.9700992 0.878306 0.9649691 0.878306 0.9649691 0.8676704 0.8841841 0.878306 0.8760233 0.8676704 0.8841841 0.878306 0.9649691 0.8676704 0.9568082 0.8676704 0.9568082 0.8595096 0.8948197 0.8676704 0.8841841 0.8595096 0.8948197 0.8676704 0.9568082 0.8595096 0.9461725 0.8595096 0.9461725 0.8543793 0.9072051 0.8595096 0.8948197 0.8543793 0.9072051 0.8595096 0.9461725 0.8543793 0.9337873 0.8543793 0.9337873 0.8526296 0.9204961 0.8543793 0.9072051 0.9039825 0.8691434 0.9172736 0.9700992 0.9039825 0.971849 0.9039825 0.971849 0.8906912 0.8708931 0.9039825 0.8691434 0.9172736 0.9700992 0.9039825 0.8691434 0.9172736 0.8708931 0.9172736 0.8708931 0.9296588 0.9649691 0.9172736 0.9700992 0.9296588 0.9649691 0.9172736 0.8708931 0.9296588 0.8760233 0.9296588 0.8760233 0.9402945 0.9568082 0.9296588 0.9649691 0.9402945 0.9568082 0.9296588 0.8760233 0.9402945 0.8841841 0.9402945 0.8841841 0.9484553 0.9461725 0.9402945 0.9568082 0.9484553 0.9461725 0.9402945 0.8841841 0.9484553 0.8948197 0.9484553 0.8948197 0.9535855 0.9337873 0.9484553 0.9461725 0.9535855 0.9337873 0.9484553 0.8948197 0.9535855 0.9072051 0.9535855 0.9072051 0.9553353 0.9204962 0.9535855 0.9337873 0.1470211 0.8617818 0.1470211 0.9111034 0.02884519 0.9111034 0.02884519 0.9111034 0.02884519 0.8617818 0.1470211 0.8617818 0.5955867 0.7935986 0.5955865 0.6599758 0.6924445 0.6599757 0.6924445 0.6599757 0.6924447 0.7935985 0.5955867 0.7935986 0.1202103 0.001240193 0.1202103 0.6566822 0.02335238 0.6566822 0.02335238 0.6566822 0.02335238 0.001240193 0.1202103 0.001240193 0.7144306 0.001240193 0.7144306 0.6566822 0.6924445 0.6566822 0.6924445 0.6566822 0.6924445 0.001240193 0.7144306 0.001240193 0.002020061 0.9604251 0.002020001 0.9111034 0.02884519 0.9111034 0.02884519 0.9111034 0.02884525 0.9604251 0.002020061 0.9604251 0.5955867 0.8630804 0.5955867 0.8598903 0.6924447 0.8598902 0.6924447 0.8598902 0.6924447 0.8630803 0.5955867 0.8630804 0.001366198 0.6599758 0.001366198 0.6566822 0.02335238 0.6566822 0.02335238 0.6566822 0.02335238 0.6599758 0.001366198 0.6599758 0.5955865 0.6599758 0.5955865 0.6566822 0.6924445 0.6566822 0.6924445 0.6566822 0.6924445 0.6599757 0.5955865 0.6599758 0.1202103 0.6599758 0.1202104 0.7935988 0.02335244 0.7935988 0.02335244 0.7935988 0.02335238 0.6599758 0.1202103 0.6599758 0.5955867 0.8598903 0.5955867 0.8567001 0.6924447 0.8567 0.6924447 0.8567 0.6924447 0.8598902 0.5955867 0.8598903 0.001366257 0.8291922 0.001366317 0.8022409 0.02335244 0.8022409 0.02335244 0.8022409 0.02335244 0.8291922 0.001366257 0.8291922 0.5955867 0.8291922 0.5955867 0.8022409 0.6924447 0.8022407 0.6924447 0.8022407 0.6924447 0.8291921 0.5955867 0.8291922 0.001366198 0.8567003 0.001366257 0.83089 0.02335238 0.83089 0.02335238 0.83089 0.02335238 0.8567003 0.001366198 0.8567003 0.1202104 0.7935988 0.1202104 0.800543 0.02335244 0.800543 0.02335244 0.800543 0.02335244 0.7935988 0.1202104 0.7935988 0.5955867 0.8567001 0.5955867 0.8308898 0.6924447 0.8308897 0.6924447 0.8308897 0.6924447 0.8567 0.5955867 0.8567001 0.7144308 0.7935985 0.7144308 0.8005429 0.6924447 0.8005429 0.6924447 0.8005429 0.6924447 0.7935985 0.7144308 0.7935985 0.1202104 0.800543 0.1202103 0.8022409 0.02335244 0.8022409 0.02335244 0.8022409 0.02335244 0.800543 0.1202104 0.800543 0.001366257 0.83089 0.001366257 0.8291922 0.02335244 0.8291922 0.02335244 0.8291922 0.02335238 0.83089 0.001366257 0.83089 0.5955867 0.8308898 0.5955867 0.8291922 0.6924447 0.8291921 0.6924447 0.8291921 0.6924447 0.8308897 0.5955867 0.8308898 0.7144308 0.8005429 0.7144308 0.8022407 0.6924447 0.8022407 0.6924447 0.8022407 0.6924447 0.8005429 0.7144308 0.8005429 0.5955865 0.001240193 0.5955865 0.6566822 0.4987288 0.6566822 0.4987288 0.6566822 0.4987287 0.001240193 0.5955865 0.001240193 0.2920221 0.8617818 0.2920221 0.9111034 0.2651969 0.9111034 0.2651969 0.9111034 0.2651969 0.8617818 0.2920221 0.8617818 0.2390544 0.6599758 0.2390545 0.7935987 0.2170683 0.7935987 0.2170683 0.7935987 0.2170682 0.6599758 0.2390544 0.6599758 0.2390545 0.001240193 0.2390545 0.6566822 0.2170683 0.6566822 0.2170683 0.6566822 0.2170683 0.001240193 0.2390545 0.001240193 0.1470211 0.9604251 0.1470211 0.9111034 0.2651969 0.9111034 0.2651969 0.9111034 0.2651969 0.9604251 0.1470211 0.9604251 0.5955867 0.8567001 0.5955867 0.8598903 0.4987289 0.8598904 0.4987289 0.8598904 0.4987289 0.8567003 0.5955867 0.8567001 0.4767426 0.6599758 0.4767426 0.6566822 0.4987288 0.6566822 0.4987288 0.6566822 0.4987288 0.6599758 0.4767426 0.6599758 0.1202103 0.6599758 0.1202103 0.6566822 0.2170683 0.6566822 0.2170683 0.6566822 0.2170682 0.6599758 0.1202103 0.6599758 0.5955867 0.8598903 0.5955867 0.8630804 0.4987289 0.8630805 0.4987289 0.8630805 0.4987289 0.8598904 0.5955867 0.8598903 0.5955865 0.6599758 0.5955867 0.7935986 0.4987288 0.7935987 0.4987288 0.7935987 0.4987288 0.6599758 0.5955865 0.6599758 0.1202103 0.8291922 0.1202103 0.8022409 0.2170682 0.8022409 0.2170682 0.8022409 0.2170682 0.8291922 0.1202103 0.8291922 0.4767428 0.8291923 0.4767427 0.802241 0.4987288 0.802241 0.4987288 0.802241 0.4987289 0.8291923 0.4767428 0.8291923 0.1202103 0.8567003 0.1202103 0.83089 0.2170682 0.83089 0.2170682 0.83089 0.2170682 0.8567003 0.1202103 0.8567003 0.2390545 0.7935987 0.2390545 0.800543 0.2170683 0.800543 0.2170683 0.800543 0.2170683 0.7935987 0.2390545 0.7935987 0.4767428 0.8567003 0.4767427 0.83089 0.4987289 0.8308899 0.4987289 0.8308899 0.4987289 0.8567003 0.4767428 0.8567003 0.5955867 0.7935986 0.5955867 0.800543 0.4987288 0.8005431 0.4987288 0.8005431 0.4987288 0.7935987 0.5955867 0.7935986 0.2390545 0.800543 0.2390543 0.8022409 0.2170682 0.8022409 0.2170682 0.8022409 0.2170683 0.800543 0.2390545 0.800543 0.1202103 0.83089 0.1202103 0.8291922 0.2170682 0.8291922 0.2170682 0.8291922 0.2170682 0.83089 0.1202103 0.83089 0.4767427 0.83089 0.4767428 0.8291923 0.4987289 0.8291923 0.4987289 0.8291923 0.4987289 0.8308899 0.4767427 0.83089 0.5955867 0.800543 0.5955867 0.8022409 0.4987288 0.802241 0.4987288 0.802241 0.4987288 0.8005431 0.5955867 0.800543</float_array>
          <technique_common>
            <accessor source="#Mesh-mesh-map-0-array" count="954" stride="2">
              <param name="S" type="float"/>
              <param name="T" type="float"/>
            </accessor>
          </technique_common>
        </source>
        <vertices id="Mesh-mesh-vertices">
          <input semantic="POSITION" source="#Mesh-mesh-positions"/>
        </vertices>
        <triangles material="MilkCartn-material" count="318">
          <input semantic="VERTEX" source="#Mesh-mesh-vertices" offset="0"/>
          <input semantic="NORMAL" source="#Mesh-mesh-normals" offset="1"/>
          <input semantic="TEXCOORD" source="#Mesh-mesh-map-0" offset="2" set="0"/>
          <p>134 0 0 138 0 1 13 0 2 13 0 3 0 0 4 134 0 5 45 1 6 143 2 7 137 3 8 137 3 9 4 4 10 45 1 11 13 5 12 24 6 13 19 7 14 19 7 15 0 5 16 13 5 17 136 8 18 140 8 19 18 8 20 18 8 21 1 8 22 136 8 23 12 9 24 25 10 25 20 11 26 20 11 27 3 9 28 12 9 29 156 12 30 160 12 31 21 12 32 21 12 33 2 12 34 156 12 35 156 0 36 158 0 37 16 0 38 16 0 39 8 0 40 156 0 41 157 13 42 162 14 43 41 15 44 41 15 45 10 16 46 157 13 47 154 8 48 161 8 49 22 8 50 22 8 51 9 8 52 154 8 53 134 12 54 141 12 55 23 12 56 23 12 57 8 12 58 134 12 59 9 0 60 136 0 61 138 0 62 138 0 63 16 0 64 9 0 65 52 17 66 144 18 67 139 19 68 139 19 69 51 20 70 52 17 71 1 5 72 18 21 73 24 6 74 24 6 75 13 5 76 1 5 77 2 9 78 21 22 79 25 10 80 25 10 81 12 9 82 2 9 83 3 0 84 154 0 85 158 0 86 158 0 87 12 0 88 3 0 89 56 23 90 165 24 91 159 25 92 159 25 93 55 26 94 56 23 95 38 27 96 27 28 97 28 29 98 28 29 99 29 30 100 38 27 101 10 8 102 135 8 103 140 8 104 140 8 105 22 8 106 10 8 107 39 31 108 33 32 109 34 33 110 34 33 111 35 34 112 39 31 113 11 12 114 155 12 115 160 12 116 160 12 117 23 12 118 11 12 119 7 8 120 157 8 121 161 8 122 161 8 123 20 8 124 7 8 125 4 12 126 137 12 127 141 12 128 141 12 129 19 12 130 4 12 131 31 35 132 38 27 133 29 30 134 29 30 135 30 36 136 31 35 137 37 37 138 39 31 139 35 34 140 35 34 141 36 38 142 37 37 143 45 39 144 48 40 145 26 5 146 26 5 147 14 5 148 45 39 149 4 41 150 19 7 151 28 42 152 28 42 153 27 43 154 4 41 155 19 7 156 24 6 157 29 44 158 29 44 159 28 42 160 19 7 161 24 6 162 18 21 163 30 45 164 30 45 165 29 44 166 24 6 167 18 21 168 5 46 169 31 47 170 31 47 171 30 45 172 18 21 173 42 48 174 43 5 175 31 47 176 31 47 177 5 46 178 42 48 179 40 49 180 44 50 181 32 9 182 32 9 183 15 9 184 40 49 185 7 51 186 20 11 187 34 52 188 34 52 189 33 53 190 7 51 191 20 11 192 25 10 193 35 54 194 35 54 195 34 52 196 20 11 197 25 10 198 21 22 199 36 55 200 36 55 201 35 54 202 25 10 203 21 22 204 6 56 205 37 57 206 37 57 207 36 55 208 21 22 209 46 58 210 49 9 211 37 57 212 37 57 213 6 56 214 46 58 215 26 59 216 48 59 217 38 59 218 31 60 219 43 60 220 38 60 221 32 61 222 44 61 223 39 61 224 37 62 225 49 62 226 39 62 227 55 26 228 159 25 229 164 63 230 164 63 231 54 64 232 55 26 233 5 65 234 135 66 235 142 67 236 142 67 237 42 68 238 5 65 239 42 48 240 14 5 241 26 5 242 26 5 243 43 5 244 42 48 245 40 49 246 7 51 247 33 53 248 33 53 249 44 50 250 40 49 251 51 20 252 139 19 253 145 69 254 145 69 255 50 70 256 51 20 257 6 71 258 155 72 259 163 73 260 163 73 261 46 74 262 6 71 263 45 39 264 4 41 265 27 43 266 27 43 267 48 40 268 45 39 269 46 58 270 15 9 271 32 9 272 32 9 273 49 9 274 46 58 275 43 75 276 26 75 277 38 75 278 48 76 279 27 76 280 38 76 281 49 77 282 32 77 283 39 77 284 44 78 285 33 78 286 39 78 287 60 5 288 61 5 289 59 5 290 59 5 291 58 5 292 60 5 293 63 5 294 61 5 295 60 5 296 60 5 297 62 5 298 63 5 299 79 79 300 151 8 301 150 8 302 150 8 303 76 8 304 79 79 305 78 8 306 171 80 307 170 81 308 170 81 309 77 8 310 78 8 311 68 9 312 69 9 313 67 9 314 67 9 315 66 9 316 68 9 317 71 9 318 69 9 319 68 9 320 68 9 321 70 9 322 71 9 323 82 82 324 172 83 325 173 84 326 173 84 327 85 85 328 82 82 329 81 12 330 152 12 331 153 12 332 153 12 333 80 12 334 81 12 335 51 86 336 50 87 337 59 88 338 59 88 339 61 89 340 51 86 341 58 5 342 45 39 343 14 5 344 14 5 345 60 5 346 58 5 347 52 90 348 51 86 349 61 89 350 61 91 351 63 91 352 52 91 353 14 5 354 42 48 355 62 5 356 62 5 357 60 5 358 14 5 359 53 92 360 144 93 361 146 94 362 146 94 363 65 95 364 53 92 365 42 8 366 142 8 367 147 8 368 147 8 369 62 8 370 42 8 371 54 96 372 164 97 373 166 98 374 166 98 375 67 99 376 54 96 377 41 100 378 162 101 379 167 102 380 167 102 381 64 103 382 41 100 383 55 104 384 54 105 385 67 106 386 67 106 387 69 107 388 55 104 389 66 9 390 40 49 391 15 9 392 15 9 393 68 9 394 66 9 395 56 108 396 55 104 397 69 107 398 69 109 399 71 109 400 56 109 401 15 9 402 46 58 403 70 9 404 70 9 405 68 9 406 15 9 407 57 110 408 165 111 409 168 112 410 168 112 411 73 113 412 57 110 413 46 114 414 163 115 415 169 116 416 169 116 417 70 117 418 46 114 419 50 118 420 145 12 421 148 119 422 148 119 423 59 120 424 50 118 425 47 121 426 143 12 427 149 12 428 149 12 429 72 122 430 47 121 431 63 5 432 62 5 433 75 5 434 75 5 435 74 5 436 63 5 437 147 0 438 150 0 439 75 0 440 75 0 441 62 0 442 147 0 443 167 0 444 170 0 445 76 0 446 76 0 447 64 0 448 167 0 449 66 9 450 67 9 451 78 9 452 78 9 453 77 9 454 66 9 455 166 123 456 171 123 457 78 123 458 78 123 459 67 123 460 166 123 461 146 123 462 151 123 463 79 123 464 79 123 465 65 123 466 146 123 467 58 5 468 59 5 469 81 5 470 81 5 471 80 5 472 58 5 473 148 123 474 152 123 475 81 123 476 81 123 477 59 123 478 148 123 479 168 123 480 172 123 481 82 123 482 82 123 483 73 123 484 168 123 485 71 9 486 70 9 487 84 9 488 84 9 489 83 9 490 71 9 491 169 0 492 173 0 493 84 0 494 84 0 495 70 0 496 169 0 497 149 0 498 153 0 499 85 0 500 85 0 501 72 0 502 149 0 503 86 124 504 87 125 505 111 126 506 111 126 507 110 127 508 86 124 509 87 125 510 88 128 511 112 129 512 112 129 513 111 126 514 87 125 515 88 128 516 89 130 517 113 131 518 113 131 519 112 129 520 88 128 521 89 130 522 90 132 523 114 133 524 114 133 525 113 131 526 89 130 527 90 132 528 91 134 529 115 135 530 115 135 531 114 133 532 90 132 533 91 134 534 92 136 535 116 137 536 116 137 537 115 135 538 91 134 539 92 136 540 93 138 541 117 139 542 117 139 543 116 137 544 92 136 545 93 138 546 94 140 547 118 141 548 118 141 549 117 139 550 93 138 551 94 140 552 95 142 553 119 143 554 119 143 555 118 141 556 94 140 557 95 142 558 96 144 559 120 145 560 120 145 561 119 143 562 95 142 563 96 144 564 97 146 565 121 147 566 121 147 567 120 145 568 96 144 569 97 146 570 98 148 571 122 149 572 122 149 573 121 147 574 97 146 575 98 148 576 99 150 577 123 151 578 123 151 579 122 149 580 98 148 581 99 150 582 100 152 583 124 153 584 124 153 585 123 151 586 99 150 587 100 152 588 101 154 589 125 155 590 125 155 591 124 153 592 100 152 593 101 154 594 102 156 595 126 157 596 126 157 597 125 155 598 101 154 599 102 156 600 103 158 601 127 159 602 127 159 603 126 157 604 102 156 605 103 158 606 104 160 607 128 161 608 128 161 609 127 159 610 103 158 611 104 160 612 105 162 613 129 163 614 129 163 615 128 161 616 104 160 617 105 162 618 106 164 619 130 165 620 130 165 621 129 163 622 105 162 623 106 164 624 107 166 625 131 167 626 131 167 627 130 165 628 106 164 629 107 166 630 108 168 631 132 169 632 132 169 633 131 167 634 107 166 635 108 168 636 109 170 637 133 171 638 133 171 639 132 169 640 108 168 641 109 170 642 86 124 643 110 127 644 110 127 645 133 171 646 109 170 647 133 172 648 122 173 649 123 174 650 123 174 651 132 175 652 133 172 653 132 175 654 123 174 655 124 176 656 124 176 657 131 177 658 132 175 659 131 177 660 124 176 661 125 178 662 125 178 663 130 179 664 131 177 665 130 179 666 125 178 667 126 180 668 126 180 669 129 181 670 130 179 671 129 181 672 126 180 673 127 182 674 127 182 675 128 183 676 129 181 677 110 184 678 121 185 679 122 173 680 122 173 681 133 172 682 110 184 683 121 185 684 110 184 685 111 186 686 111 186 687 120 187 688 121 185 689 120 187 690 111 186 691 112 188 692 112 188 693 119 189 694 120 187 695 119 189 696 112 188 697 113 190 698 113 190 699 118 191 700 119 189 701 118 191 702 113 190 703 114 192 704 114 192 705 117 193 706 118 191 707 117 193 708 114 192 709 115 194 710 115 194 711 116 195 712 117 193 713 8 0 714 16 0 715 138 0 716 138 0 717 134 0 718 8 0 719 47 3 720 11 196 721 137 3 722 137 3 723 143 2 724 47 3 725 9 8 726 22 8 727 140 8 728 140 8 729 136 8 730 9 8 731 0 12 732 19 12 733 141 12 734 141 12 735 134 12 736 0 12 737 1 0 738 13 0 739 138 0 740 138 0 741 136 0 742 1 0 743 53 123 744 17 123 745 139 19 746 139 19 747 144 18 748 53 123 749 5 8 750 18 8 751 140 8 752 140 8 753 135 8 754 5 8 755 11 12 756 23 12 757 141 12 758 141 12 759 137 12 760 11 12 761 10 16 762 41 15 763 142 67 764 142 67 765 135 66 766 10 16 767 17 123 768 57 123 769 145 69 770 145 69 771 139 19 772 17 123 773 74 8 774 75 8 775 150 8 776 150 8 777 151 8 778 74 8 779 82 82 780 85 85 781 153 12 782 153 12 783 152 12 784 82 82 785 52 197 786 63 198 787 146 94 788 146 94 789 144 93 790 52 197 791 41 100 792 64 103 793 147 8 794 147 8 795 142 8 796 41 100 797 57 110 798 73 113 799 148 119 800 148 119 801 145 12 802 57 110 803 45 12 804 58 12 805 149 12 806 149 12 807 143 12 808 45 12 809 64 0 810 76 0 811 150 0 812 150 0 813 147 0 814 64 0 815 63 123 816 74 123 817 151 123 818 151 123 819 146 123 820 63 123 821 73 123 822 82 123 823 152 123 824 152 123 825 148 123 826 73 123 827 58 0 828 80 0 829 153 0 830 153 0 831 149 0 832 58 0 833 8 12 834 23 12 835 160 12 836 160 12 837 156 12 838 8 12 839 2 0 840 12 0 841 158 0 842 158 0 843 156 0 844 2 0 845 7 68 846 40 199 847 162 14 848 162 14 849 157 13 850 7 68 851 3 8 852 20 8 853 161 8 854 161 8 855 154 8 856 3 8 857 9 0 858 16 0 859 158 0 860 158 0 861 154 0 862 9 0 863 57 123 864 17 123 865 159 25 866 159 25 867 165 24 868 57 123 869 6 12 870 21 12 871 160 12 872 160 12 873 155 12 874 6 12 875 10 8 876 22 8 877 161 8 878 161 8 879 157 8 880 10 8 881 17 123 882 53 123 883 164 63 884 164 63 885 159 25 886 17 123 887 11 196 888 47 3 889 163 73 890 163 73 891 155 72 892 11 196 893 79 79 894 76 8 895 170 81 896 170 81 897 171 80 898 79 79 899 83 200 900 84 12 901 173 84 902 173 84 903 172 83 904 83 200 905 53 92 906 65 95 907 166 98 908 166 98 909 164 97 910 53 92 911 40 201 912 66 202 913 167 102 914 167 102 915 162 101 916 40 201 917 56 203 918 71 204 919 168 112 920 168 112 921 165 111 922 56 203 923 47 121 924 72 122 925 169 116 926 169 116 927 163 115 928 47 121 929 66 0 930 77 0 931 170 0 932 170 0 933 167 0 934 66 0 935 65 123 936 79 123 937 171 123 938 171 123 939 166 123 940 65 123 941 71 123 942 83 123 943 172 123 944 172 123 945 168 123 946 71 123 947 72 0 948 85 0 949 173 0 950 173 0 951 169 0 952 72 0 953</p>
        </triangles>
      </mesh>
    </geometry>
  </library_geometries>
  <library_visual_scenes>
    <visual_scene id="Scene" name="Scene">
      <node id="MilkCarton" name="MilkCarton" type="NODE">
        <matrix sid="transform">0.0254 0 0 0 0 0.0254 0 0 0 0 0.0254 0.116 0 0 0 1</matrix>
        <instance_geometry url="#Mesh-mesh" name="MilkCarton">
          <bind_material>
            <technique_common>
              <instance_material symbol="MilkCartn-material" target="#MilkCartn-material">
                <bind_vertex_input semantic="UVChannel_1" input_semantic="TEXCOORD" input_set="0"/>
              </instance_material>
            </technique_common>
          </bind_material>
        </instance_geometry>
      </node>
      <node id="Camera" name="Camera" type="NODE">
        <matrix sid="transform">0.6859207 -0.3240135 0.6515582 7.358891 0.7276763 0.3054208 -0.6141704 -6.925791 0 0.8953956 0.4452714 4.958309 0 0 0 1</matrix>
        <instance_camera url="#Camera-camera"/>
      </node>
      <node id="Light" name="Light" type="NODE">
        <matrix sid="transform">-0.2908646 -0.7711008 0.5663932 4.076245 0.9551712 -0.1998834 0.2183912 1.005454 -0.05518906 0.6045247 0.7946723 5.903862 0 0 0 1</matrix>
        <instance_light url="#Light-light"/>
      </node>
    </visual_scene>
  </library_visual_scenes>
  <scene>
    <instance_visual_scene url="#Scene"/>
  </scene>
</COLLADA>