<?xml version="1.0" encoding="utf-8"?>
<COLLADA xmlns="http://www.collada.org/2005/11/COLLADASchema" version="1.4.1" xmlns:xsi="http://www.w3.org/2001/XMLSchema-instance">
  <asset>
    <contributor>
      <author>Blender User</author>
      <authoring_tool>Blender 4.5.8 LTS commit date:2026-03-16, commit time:16:54, hash:d7359176d0d3</authoring_tool>
    </contributor>
    <created>2026-04-09T15:32:55</created>
    <modified>2026-04-09T15:32:55</modified>
    <unit name="meter" meter="1"/>
    <up_axis>Z_UP</up_axis>
  </asset>
  <library_cameras>
    <camera id="Camera-camera" name="Camera">
      <optics>
        <technique_common>
          <perspective>
            <xfov sid="xfov">39.59775</xfov>
            <aspect_ratio>1.777778</aspect_ratio>
            <znear sid="znear">0.1</znear>
            <zfar sid="zfar">100</zfar>
          </perspective>
        </technique_common>
      </optics>
      <extra>
        <technique profile="blender">
          <shiftx sid="shiftx" type="float">0</shiftx>
          <shifty sid="shifty" type="float">0</shifty>
          <dof_distance sid="dof_distance" type="float">10</dof_distance>
        </technique>
      </extra>
    </camera>
  </library_cameras>
  <library_lights>
    <light id="Light-light" name="Light">
      <technique_common>
        <point>
          <color sid="color">1000 1000 1000</color>
          <constant_attenuation>1</constant_attenuation>
          <linear_attenuation>0</linear_attenuation>
          <quadratic_attenuation>0</quadratic_attenuation>
        </point>
      </technique_common>
      <extra>
        <technique profile="blender">
          <type sid="type" type="int">0</type>
          <flag sid="flag" type="int">0</flag>
          <mode sid="mode" type="int">2097153</mode>
          <red sid="red" type="float">1</red>
          <green sid="green" type="float">1</green>
          <blue sid="blue" type="float">1</blue>
          <energy sid="blender_energy" type="float">1000</energy>
          <spotsize sid="spotsize" type="float">75</spotsize>
          <spotblend sid="spotblend" type="float">0.15</spotblend>
          <clipsta sid="clipsta" type="float">0.04999995</clipsta>
          <clipend sid="clipend" type="float">40</clipend>
          <radius sid="radius" type="float">0.1</radius>
          <area_shape sid="area_shape" type="int">1</area_shape>
          <area_size sid="area_size" type="float">0.1</area_size>
          <area_sizey sid="area_sizey" type="float">0.1</area_sizey>
          <area_sizez sid="area_sizez" type="float">1</area_sizez>
        </technique>
      </extra>
    </light>
  </library_lights>
  <library_effects>
    <effect id="Grater_Clean-effect">
      <profile_COMMON>
        <newparam sid="grater_clean_Color_tga_png-surface">
          <surface type="2D">
            <init_from>grater_clean_Color_tga_png</init_from>
          </surface>
        </newparam>
        <newparam sid="grater_clean_Color_tga_png-sampler">
          <sampler2D>
            <source>grater_clean_Color_tga_png-surface</source>
          </sampler2D>
        </newparam>
        <technique sid="common">
          <lambert>
            <emission>
              <color sid="emission">0 0 0 1</color>
            </emission>
            <diffuse>
              <texture texture="grater_clean_Color_tga_png-sampler" texcoord="UVChannel_1"/>
            </diffuse>
            <index_of_refraction>
              <float sid="ior">1.5</float>
            </index_of_refraction>
          </lambert>
        </technique>
      </profile_COMMON>
    </effect>
  </library_effects>
  <library_images>
    <image id="grater_clean_Color_tga_png" name="grater_clean_Color_tga_png">
      <init_from>grater_clean_Color.tga.png</init_from>
    </image>
  </library_images>
  <library_materials>
    <material id="Grater_Clean-material" name="Grater_Clean">
      <instance_effect url="#Grater_Clean-effect"/>
    </material>
  </library_materials>
  <library_geometries>
    <geometry id="Mesh_001-mesh" name="Mesh.001">
      <mesh>
        <source id="Mesh_001-mesh-positions">
          <float_array id="Mesh_001-mesh-positions-array" count="648">-3.312904 2.657225 14.99997 -3.129364 3.137315 14.99997 -3.13443 3.142381 14.57755 -3.318174 2.661452 14.57755 -3.240383 3.248616 14.38807 -3.318174 -2.661451 14.57755 -3.312904 -2.657225 14.99997 -3.145927 -3.13388 14.99997 -3.440698 2.730543 14.38805 -3.138991 3.146942 14.1974 -3.440842 -2.729815 14.38805 -3.150994 -3.138947 14.57755 -2.657225 -3.312903 14.99997 -3.322914 2.665255 14.1974 -3.299674 3.307622 0.80255 -3.322914 -2.665254 14.1974 -3.489989 2.799263 0.8025498 -3.257308 -3.24482 14.38807 -3.616224 2.871177 0.6130461 -3.304233 3.312183 0.4224001 -2.661452 -3.318172 14.57755 -3.494731 2.803066 0.4224 -3.5 2.807292 -2.51501e-5 -3.5 -2.807292 -2.51501e-5 -3.494731 -2.803066 0.4224 -3.61636 -2.870483 0.6130452 -3.320796 -3.30875 0.4224001 -3.325865 -3.313817 -2.51501e-5 -3.489989 -2.799262 0.8025498 -3.426084 -3.413616 0.6130617 -3.316237 -3.30419 0.80255 -3.155555 -3.143507 14.1974 -2.799262 -3.489989 0.8025498 -2.870838 -3.616291 0.6130457 -2.803066 -3.494731 0.4224 -2.807292 -3.5 -2.51501e-5 2.807292 -3.5 -2.51501e-5 2.803066 -3.494731 0.4224 2.870605 -3.616337 0.6130453 3.323559 -3.31303 0.4224001 3.328626 -3.318098 -2.51501e-5 2.799262 -3.489989 0.8025498 3.494731 -2.803066 0.4224 3.5 -2.807292 -2.51501e-5 3.428819 -3.417921 0.6130608 3.5 2.807292 -2.51501e-5 -2.665255 -3.322914 14.1974 3.494731 2.803066 0.4224 -2.730184 -3.440769 14.38805 2.665253 -3.322914 14.1974 2.66145 -3.318172 14.57755 2.657223 -3.312903 14.99997 3.148687 -3.138159 14.99997 2.729936 -3.440817 14.38805 3.153755 -3.143227 14.57755 3.312902 -2.657225 14.99997 3.260042 -3.249126 14.38807 3.158314 -3.147787 14.1974 3.318999 -3.30847 0.80255 3.322912 -2.665254 14.1974 3.440877 -2.72961 14.38805 3.318171 -2.661451 14.57755 3.318171 2.661452 14.57755 3.312902 2.657225 14.99997 3.138509 3.137383 14.99997 3.143577 3.14245 14.57755 2.657223 3.312904 14.99997 3.440781 2.730111 14.38805 2.66145 3.318173 14.57755 3.322912 2.665255 14.1974 3.249692 3.248523 14.38807 3.148138 3.14701 14.1974 2.730144 3.440778 14.38805 -2.661452 3.318173 14.57755 -2.657227 3.312904 14.99997 -2.730308 3.440745 14.38805 -2.665255 3.322915 14.1974 2.665253 3.322915 14.1974 -2.799262 3.489989 0.8025498 -2.870951 3.616268 0.6130459 -3.409175 3.417395 0.6130637 2.799262 3.489989 0.8025498 3.30882 3.307691 0.80255 2.870798 3.616298 0.6130457 -2.803066 3.494731 0.4224 -3.309301 3.317251 -2.51501e-5 -2.807292 3.5 -2.51501e-5 2.803066 3.494731 0.4224 2.807292 3.5 -2.51501e-5 3.318448 3.31732 -2.51501e-5 3.418477 3.417309 0.6130625 3.313381 3.312252 0.4224001 3.616306 2.870766 0.6130456 3.489989 2.799263 0.8025498 3.616396 -2.870289 0.6130449 3.489989 -2.799262 0.8025498 3.014796 -1.021751 17.09744 3.014796 1.021736 17.09744 2.773899 -1.021751 17.61382 2.773899 1.021736 17.61382 2.567068 1.021736 17.83248 2.56707 -1.021751 17.83248 2.296677 1.021736 17.97162 2.296677 -1.021751 17.97162 -2.296677 1.021736 17.97162 -2.296677 -1.021751 17.97162 -2.567068 1.021736 17.83248 -2.56707 -1.021751 17.83248 -2.773899 1.021736 17.61382 -2.773899 -1.021751 17.61382 -3.014796 -1.021751 17.09744 -3.014796 1.021736 17.09744 3.312902 -1.021751 14.99997 3.312902 1.021736 14.99997 -3.312904 1.021736 14.99997 -3.312904 -1.021751 14.99997 -3.165387 2.630131 14.99785 -3.023805 3.030774 14.99744 -3.165021 -2.632199 14.99787 -3.039118 -3.028593 14.99743 -2.631161 -3.1652 14.99786 -3.352432 2.780472 -0.002133846 -3.352087 -2.782445 -0.002124905 -3.219094 -3.208491 -0.002561807 -2.781446 -3.352258 -0.002126395 2.782105 -3.352144 -0.002127766 3.221947 -3.212678 -0.00256282 3.351994 -2.783004 -0.002113997 3.352224 2.78164 -0.002131819 2.631853 -3.165079 14.99787 3.041973 -3.032775 14.99743 3.164921 -2.632788 14.99787 3.165165 2.631356 14.99787 3.032382 3.031408 14.99743 2.631265 3.165182 14.99786 -2.630794 3.165266 14.99786 -3.203712 3.21074 -0.002552628 -2.781118 3.352316 -0.002128779 2.781554 3.352239 -0.002125382 3.212325 3.211341 -0.002561509 2.87101 -1.021751 17.05471 2.87101 1.021736 17.05471 2.649849 -1.021751 17.52949 2.64985 1.021736 17.52949 2.476981 1.021736 17.71255 2.476983 -1.021751 17.71255 2.261368 1.021736 17.82584 2.261369 -1.021751 17.82583 -2.261368 1.021736 17.82584 -2.261368 -1.021751 17.82584 -2.476981 1.021736 17.71255 -2.476983 -1.021751 17.71255 -2.64985 1.021736 17.52949 -2.649849 -1.021751 17.52949 -2.87101 -1.021751 17.05471 -2.87101 1.021736 17.05471 3.163132 -1.021751 14.99167 3.163132 1.021736 14.99167 -3.163134 1.021736 14.99167 -3.163134 -1.021751 14.99167 -3.256507 3.263996 -0.06928205 -3.426216 2.793882 -0.06907266 -3.426043 -2.794868 -0.06906819 -3.27248 -3.261154 -0.06928664 -2.794369 -3.426129 -0.0690689 2.794698 -3.426072 -0.06906962 3.275287 -3.265388 -0.06928712 3.425997 -2.795148 -0.0690627 3.426112 2.794466 -0.06907165 -2.794205 3.426158 -0.0690701 2.794423 3.42612 -0.06906843 3.265387 3.26433 -0.06928646 -3.237933 2.643396 15.0869 -3.075539 3.082987 15.08669 -3.234574 1.083904 15.05801 -3.091461 -3.080193 15.08669 -3.23776 -2.644451 15.08691 -2.644005 -3.237828 15.08691 2.644357 -3.237773 15.08691 3.09427 -3.084423 15.08669 3.237707 -2.644751 15.08691 3.234571 -1.083918 15.05801 3.084392 3.083345 15.08669 3.237829 2.644022 15.08691 2.644057 3.237819 15.08691 -2.64382 3.237864 15.08691 2.711874 -1.109751 17.57165 2.942903 -1.109751 17.07608 2.942903 1.109736 17.07608 2.711874 1.109736 17.57165 2.522024 1.109736 17.77252 2.522026 -1.109751 17.77252 2.279023 1.109736 17.89873 2.279023 -1.109751 17.89873 -2.279023 1.109736 17.89873 -2.279023 -1.109751 17.89873 -2.522024 1.109736 17.77252 -2.522026 -1.109751 17.77252 -2.711874 1.109736 17.57165 -2.711874 -1.109751 17.57165 -2.942903 -1.109751 17.07608 -2.942903 1.109736 17.07608 3.234572 1.083903 15.05801 -3.234573 -1.083918 15.05801 -2.921593 -1.021751 17.36877 -2.921594 1.021736 17.36877 -2.785469 -1.021751 17.30416 -2.78547 1.021736 17.30416 -2.853409 -1.110357 17.33644 -2.85341 1.110342 17.33644 2.921593 -1.021751 17.36877 2.921593 1.021736 17.36877 2.78547 -1.021751 17.30416 2.78547 1.021736 17.30416 2.853409 -1.110357 17.33644 2.85341 1.110342 17.33644</float_array>
          <technique_common>
            <accessor source="#Mesh_001-mesh-positions-array" count="216" stride="3">
              <param name="X" type="float"/>
              <param name="Y" type="float"/>
              <param name="Z" type="float"/>
            </accessor>
          </technique_common>
        </source>
        <source id="Mesh_001-mesh-normals">
          <float_array id="Mesh_001-mesh-normals-array" count="684">-0.9346339 0.005762994 0.355565 -0.6993616 0.6991727 0.1484959 -0.6846663 0.6844633 0.2504839 -0.9686977 0.1721258 0.1788787 -0.7069896 0.7070264 0.0167151 -0.9163982 0.02255088 0.3996322 -0.9951273 0.001699268 0.09858447 -0.9785145 -0.1097921 0.1745137 -0.6985964 -0.7000405 0.1480081 -0.9715704 -0.1095709 0.2098698 -0.596656 0.8019389 -0.02992832 -0.9994083 -0.03210335 0.01234501 -0.5730686 -0.7393053 0.353582 0.01755452 -0.9393448 0.342525 -0.9993929 0.01865071 0.02943187 -0.7071836 0.7069545 0.01032841 -0.988968 -0.1475339 0.01327508 -0.7833971 0.3350544 -0.5234765 -0.9685268 0.1750297 0.1769756 -0.7069873 0.7070286 0.01671671 -0.8821603 -0.415172 -0.2223181 -0.7942666 -0.2267723 -0.5636621 -0.6486501 0.7238418 -0.2351726 -0.1675298 -0.9706154 0.1727417 -0.7070663 -0.7071335 0.004422664 -0.9473924 0.2924815 -0.1300088 -0.7006745 0.7020442 -0.1272372 -0.980037 -0.01653558 -0.1981265 -0.9892123 -0.02736705 -0.1439102 -0.9994721 -0.03206425 0.00524348 -0.8907072 0.07755601 -0.4479128 -0.6885103 -0.6890497 -0.2261947 -0.7066659 -0.7074856 0.009351074 -0.1704795 -0.970397 0.1710742 -0.7153278 -0.6987794 0.003682672 -0.4276481 -0.8900049 0.1581403 -0.2903529 -0.9472268 -0.1358557 -0.4715346 -0.7905041 -0.3908433 0.01764476 -0.9799865 -0.1982806 0.02849268 -0.9891524 -0.1441032 0.03336638 -0.9994297 0.005207777 -0.07191914 -0.8940284 -0.4422 0.6886572 -0.68892 -0.2261428 0.9489501 -0.2808804 -0.1435274 0.8008905 -0.4634186 -0.3792329 0.9968934 -0.04214012 0.06654179 0.9204968 -0.0147643 -0.3904712 0.808593 -0.587131 0.03813934 0.7152644 -0.698684 0.01541364 0.9804048 0.01503038 -0.1964195 0.989613 0.02724087 -0.1411525 -0.1626793 -0.9491521 -0.2695289 0.3083634 -0.7786977 0.5463898 0.1681946 -0.9167073 -0.3624339 0.03358906 -0.9994229 0.005071341 0.04478889 -0.9872379 0.1528248 0.03225553 -0.9045382 0.4251709 0.6998335 -0.69888 0.1476483 0.9524479 0.08124786 0.2936695 0.5720997 -0.7403448 0.3529753 0.707014 -0.7070005 0.01677805 0.4193434 -0.8761044 -0.2378916 0.9966164 -0.04333573 0.06984198 0.9995257 -0.03057515 -0.003694117 0.9991022 -0.01924163 0.03774279 0.8718908 0.1482641 0.4667164 0.9980068 -0.002166986 0.06307041 0.9909282 0.01580846 0.1334596 0.6987649 0.6998423 0.1481499 0.9980399 0.02848464 0.05572432 -0.01181852 0.940199 0.3404207 0.7448529 0.570551 0.3459276 0.9995915 0.02631938 0.01115137 0.9770501 0.1526172 -0.1485967 0.7070086 0.7070068 0.01674199 0.8789598 0.4184293 -0.2287939 0.03371286 0.9993548 0.01238787 -0.2519495 0.9533536 0.1662484 -0.02774548 0.8791964 0.4756511 -0.3617285 0.9077215 0.2125896 -0.1672017 0.9701777 0.1754967 -0.02664995 0.9995804 0.01135039 -0.429725 0.8893806 0.1560084 -0.1611273 0.9486261 -0.272299 -0.04058569 0.997998 -0.04850572 0.03358757 0.9993087 0.01593589 0.4539141 0.8512483 0.2633221 0.7071835 0.7069642 0.009653568 0.8903814 0.4266056 0.158836 -0.02323931 0.9821296 -0.1867657 0.09726476 0.9581542 -0.2692214 0.046826 0.9895188 -0.1366019 0.02891808 0.9809686 -0.1920013 0.7446978 0.6136092 -0.2625054 0.7028774 0.7112451 0.009693682 0.7964452 0.4663469 -0.384962 0.9751443 0.163748 -0.1492656 0.9516348 0.28908 0.104038 0.7940187 -0.0311473 0.607095 0.9057351 -0.02955985 0.4228123 0.7663761 0.0345993 0.6414598 0.5998613 -0.03047102 0.7995236 0.5621879 0.03394037 0.8263128 0.02790349 -0.03279513 0.9990726 -0.1360563 0.4019822 0.9054828 -0.02602046 -0.02968072 0.9992207 -0.600726 0.03046214 0.7988744 -0.5997775 -0.03046971 0.7995865 -0.7961832 0.03111129 0.6042553 -0.7940269 -0.03114676 0.6070843 -0.6891155 0.2880141 0.6649571 -0.9868996 -0.01710695 0.1604268 -0.905605 -0.03406065 0.4227524 0.9189502 -0.0549308 0.3905295 0.9880245 0.06102168 0.1417174 0.9867747 0.01889616 0.160993 0.9978437 0.002138018 0.06560146 -0.9953187 -0.001715719 0.09663242 -0.9882056 0.06101918 0.1404509 -0.9880868 -0.05997067 0.1417326 -0.03555953 0.03579789 0.9987263 0.05015528 -0.001734375 0.99874 -0.03698873 -0.03651058 0.9986485 -0.001171469 0.00659722 0.9999777 -0.07432788 -0.9880838 0.1347802 -0.04628413 0.04640215 -0.9978501 -0.0198962 0.001396954 -0.9998012 -0.04731959 -0.04701924 -0.9977726 -0.001290321 -0.01955676 -0.999808 0.04771065 -0.04747164 -0.9977326 0.01912665 -0.001118123 -0.9998165 0.0195198 0.001270651 -0.9998087 -0.08515381 -0.06246376 0.9944079 0.03748822 -0.03720045 0.9986044 -0.05085742 -0.08529806 0.9950568 -0.05053383 0.001860797 0.9987207 0.03648459 0.03639614 0.9986712 0.001676619 -0.006455183 0.9999778 -3.46483e-4 -0.005349159 0.9999856 -0.07281851 0.07239216 -0.9947145 0.04689621 0.0469684 -0.997795 -0.03844493 0.09739428 -0.9945032 0.02599501 -0.9996513 0.004654407 0.02035522 0.9996452 0.01718538 0.03351718 0.9983021 0.04763919 0.03856825 -0.9982665 0.04446059 0.003403425 0.9998865 0.01468026 0.002884328 -0.9999188 0.01241356 0.07440829 0.5243791 0.8482276 -0.001115739 -0.9999166 0.01286423 0.06719046 0.9851265 0.1581498 -0.03351736 0.9983021 0.0476396 -0.03332233 -0.99617 0.08083975 -0.02034562 -0.9996454 0.01718276 -0.02600014 0.9996511 0.00465542 -0.811245 0.2627582 0.5223407 0.01810824 -0.9998334 0.002349138 0.9882687 -0.05996757 0.1404591 0.01811277 0.9998333 0.002350807 -0.05030977 -0.001796782 0.9987321 0.05045515 0.001835763 0.9987246 -0.01810872 -0.9998333 0.00235027 -0.0181114 0.9998332 0.00235033 0.4673781 -0.4672821 -0.7504701 0.6636995 -0.01354438 -0.7478768 -0.06914156 -0.06783998 -0.9952976 0.4669498 0.467132 -0.7508301 0.01261538 0.6628595 -0.7486375 0.06911772 -0.07005721 -0.9951456 -0.4668147 0.4669717 -0.7510136 -0.6628879 -0.01224958 -0.7486184 -0.6621242 0.01034903 -0.7493228 0.01270627 -0.663594 -0.7479851 -0.01185202 -0.6631076 -0.7484303 -0.4670882 -0.4671642 -0.750724 -0.0047338 -0.01589715 0.9998624 0.5428142 -0.542616 0.641031 0.7521659 -0.06400555 0.6558582 0.5422772 0.5425053 0.6415789 0.01515877 0.7672061 0.6412215 -0.0136193 0.7667688 0.641779 -0.5421191 0.5423088 0.6418787 0.003034055 0.01520717 0.9998798 -0.7517957 0.05563741 0.6570447 -0.5425424 -0.5424512 0.6414005 -0.008090436 -0.003347694 0.9999617 0.01525807 -0.7678655 0.6404294 -0.6904326 -0.6479513 -0.3216552 0.04907518 -0.9978674 0.04303801 -0.6070473 -0.6481408 -0.4597904 -0.6904322 0.6479516 -0.3216552 0.08801966 0.9960482 0.01185947 -0.7252101 0.676689 -0.1271314 -0.4609944 0.648736 -0.6054964 0.0491237 0.9978632 0.0430805 -0.6070762 0.6481398 -0.4597536 -0.4609967 -0.6487356 -0.605495 -0.02072471 0.6396673 -0.7683724 -0.02072495 -0.63967 -0.7683703 0.02177333 0.6397811 -0.7682489 0.02176976 -0.6397859 -0.7682448 0.4610303 0.6487363 -0.6054687 -0.04956376 0.9984329 0.02598929 0.4609951 -0.6487367 -0.6054949 -0.04646193 -0.9986532 0.02309381 0.6070541 -0.6481363 -0.4597878 0.6904357 -0.6479465 -0.3216581 -0.08802187 -0.996048 0.01185959 0.7252109 -0.6766878 -0.127133 0.6904329 0.6479511 -0.3216549 0.607077 0.6481397 -0.4597527 -0.7252115 -0.6766879 -0.1271293 0.0880236 -0.9960477 0.0118618 -0.6073776 0.7897443 -0.08600342 -0.7519863 -0.0600323 0.6564394 0.7518743 0.05713969 0.656826 0.6073792 -0.7897429 -0.08600425 0.7252133 0.6766858 -0.1271299 -0.08801853 0.9960482 0.01185965 0.6626995 0.01090556 -0.748806 -0.01143628 0.6624005 -0.7490627 0.6795772 -0.001865983 0.7336016 -0.6794755 0.00206989 0.7336953 -0.01412683 -0.7674472 0.6409565 -0.607378 -0.7897439 -0.08600354 -0.6795209 -0.001966297 0.7336536 0.679515 0.00202924 0.7336589 0.6073845 0.7897388 -0.08600485</float_array>
          <technique_common>
            <accessor source="#Mesh_001-mesh-normals-array" count="228" stride="3">
              <param name="X" type="float"/>
              <param name="Y" type="float"/>
              <param name="Z" type="float"/>
            </accessor>
          </technique_common>
        </source>
        <source id="Mesh_001-mesh-map-0">
          <float_array id="Mesh_001-mesh-map-0-array" count="2316">0.7588977 0.567542 0.7400116 0.5829822 0.7400116 0.567542 0.7588977 0.559877 0.7400116 0.567542 0.7400116 0.559877 0.7588977 0.5829822 0.7588977 0.567542 0.8174702 0.5829822 0.961614 0.567542 0.98 0.5829822 0.961614 0.5829822 0.7400116 0.5522081 0.7588977 0.559877 0.7400116 0.559877 0.7588977 0.567542 0.961614 0.559877 0.961614 0.567542 0.961614 0.559877 0.98 0.567542 0.961614 0.567542 0.03893399 0.567542 0.01999998 0.5829822 0.01999998 0.567542 0.7588977 0.05837219 0.7400116 0.5522081 0.7400116 0.05837219 0.961614 0.05837219 0.7588977 0.5522081 0.7588977 0.05837219 0.7588977 0.05062824 0.7400116 0.05837219 0.7400116 0.05062824 0.98 0.5522081 0.961614 0.559877 0.961614 0.5522081 0.7400116 0.04290962 0.7588977 0.05062824 0.7400116 0.05062824 0.03893399 0.559877 0.01999998 0.567542 0.01999998 0.559877 0.7588977 0.02729916 0.7400116 0.04290962 0.7400116 0.02729916 0.961614 0.04290962 0.7588977 0.02729916 0.961614 0.02729916 0.961614 0.05062824 0.7588977 0.04290962 0.961614 0.04290962 0.961614 0.02729916 0.98 0.04290962 0.961614 0.04290962 0.98 0.04290962 0.961614 0.05062824 0.961614 0.04290962 0.961614 0.05062824 0.98 0.05837219 0.961614 0.05837219 0.98 0.5522081 0.961614 0.05837219 0.98 0.05837219 0.03893399 0.05062824 0.01999998 0.05837219 0.01999998 0.05062824 0.03893399 0.05837219 0.01999998 0.5522081 0.01999998 0.05837219 0.01999998 0.04290962 0.03893399 0.05062824 0.01999998 0.05062824 0.03893399 0.02729916 0.01999998 0.04290962 0.01999998 0.02729916 0.2406992 0.04290962 0.03893399 0.02729916 0.2406992 0.02729916 0.2406992 0.05062824 0.03893399 0.04290962 0.2406992 0.04290962 0.2406992 0.02729916 0.259849 0.04290962 0.2406992 0.04290962 0.259849 0.04290962 0.2406992 0.05062824 0.2406992 0.04290962 0.2785171 0.02729916 0.259849 0.04290962 0.259849 0.02729916 0.2785171 0.05062824 0.259849 0.04290962 0.2785171 0.04290962 0.259849 0.05837219 0.2406992 0.05062824 0.259849 0.05062824 0.4819281 0.04290962 0.2785171 0.02729916 0.4819281 0.02729916 0.2406992 0.5522081 0.03893399 0.05837219 0.2406992 0.05837219 0.03893399 0.559877 0.01999998 0.5522081 0.03893399 0.5522081 0.2406992 0.559877 0.03893399 0.5522081 0.2406992 0.5522081 0.2406992 0.559877 0.03893399 0.567542 0.03893399 0.559877 0.2406992 0.5829822 0.03893399 0.567542 0.2406992 0.567542 0.2406992 0.567542 0.259849 0.5829822 0.2406992 0.5829822 0.2785171 0.567542 0.259849 0.5829822 0.259849 0.567542 0.259849 0.567542 0.2406992 0.559877 0.259849 0.559877 0.259849 0.5522081 0.2406992 0.559877 0.2406992 0.5522081 0.259849 0.5522081 0.2406992 0.05837219 0.259849 0.05837219 0.2785171 0.559877 0.259849 0.5522081 0.2785171 0.5522081 0.2785171 0.05837219 0.259849 0.5522081 0.259849 0.05837219 0.2785171 0.559877 0.259849 0.567542 0.259849 0.559877 0.2785171 0.5829822 0.2785171 0.567542 0.3446762 0.5829822 0.2785171 0.559877 0.4819281 0.567542 0.2785171 0.567542 0.4819281 0.567542 0.5007091 0.5829822 0.4819281 0.5829822 0.5195838 0.567542 0.5007091 0.5829822 0.5007091 0.567542 0.2785171 0.559877 0.4819281 0.5522081 0.4819281 0.559877 0.5007091 0.567542 0.4819281 0.559877 0.5007091 0.559877 0.5007091 0.5522081 0.4819281 0.559877 0.4819281 0.5522081 0.5007091 0.567542 0.5195838 0.559877 0.5195838 0.567542 0.7214474 0.567542 0.5195838 0.5829822 0.5195838 0.567542 0.5195838 0.559877 0.7214474 0.567542 0.5195838 0.567542 0.7214474 0.567542 0.7400116 0.5829822 0.7214474 0.5829822 0.7214474 0.559877 0.7400116 0.567542 0.7214474 0.567542 0.7400116 0.5522081 0.7214474 0.559877 0.7214474 0.5522081 0.5195838 0.559877 0.7214474 0.5522081 0.7214474 0.559877 0.7214474 0.05837219 0.7400116 0.5522081 0.7214474 0.5522081 0.5007091 0.5522081 0.5195838 0.559877 0.5007091 0.559877 0.5195838 0.5522081 0.7214474 0.05837219 0.7214474 0.5522081 0.7214474 0.05062824 0.7400116 0.05837219 0.7214474 0.05837219 0.5195838 0.05062824 0.7214474 0.05837219 0.5195838 0.05837219 0.5195838 0.05837219 0.5007091 0.5522081 0.5007091 0.05837219 0.4819281 0.05837219 0.5007091 0.5522081 0.4819281 0.5522081 0.5007091 0.05837219 0.5195838 0.05062824 0.5195838 0.05837219 0.7400116 0.04290962 0.7214474 0.05062824 0.7214474 0.04290962 0.7214474 0.02729916 0.7400116 0.04290962 0.7214474 0.04290962 0.5195838 0.02729916 0.7214474 0.04290962 0.5195838 0.04290962 0.5007091 0.04290962 0.5195838 0.02729916 0.5195838 0.04290962 0.5007091 0.04290962 0.5195838 0.05062824 0.5007091 0.05062824 0.5007091 0.04290962 0.4819281 0.02729916 0.5007091 0.02729916 0.4819281 0.05062824 0.5007091 0.04290962 0.5007091 0.05062824 0.4819281 0.05062824 0.5007091 0.05837219 0.4819281 0.05837219 0.2785171 0.5522081 0.4819281 0.05837219 0.4819281 0.5522081 0.2785171 0.05062824 0.4819281 0.04290962 0.4819281 0.05062824 0.4819281 0.05837219 0.2785171 0.05062824 0.4819281 0.05062824 0.2785171 0.05062824 0.259849 0.05837219 0.259849 0.05062824 0.2406992 0.05062824 0.03893399 0.05837219 0.03893399 0.05062824 0.5195838 0.05062824 0.7214474 0.04290962 0.7214474 0.05062824 0.961614 0.05062824 0.7588977 0.05837219 0.7588977 0.05062824 0.7588977 0.5522081 0.961614 0.559877 0.7588977 0.559877 0.1228232 0.6222433 0.1330823 0.6976686 0.1228232 0.6976686 0.1330823 0.6222433 0.1434419 0.6976686 0.1330823 0.6976686 0.1434419 0.6222433 0.1537548 0.6976686 0.1434419 0.6976686 0.1537548 0.6222433 0.3222136 0.6976686 0.1537548 0.6976686 0.3222136 0.6976686 0.3325266 0.6222433 0.3325266 0.6976686 0.3325266 0.6976686 0.342886 0.6222433 0.342886 0.6976686 0.3531452 0.6222433 0.3634096 0.6976686 0.3531452 0.6976686 0.1125588 0.6976686 0.03573429 0.6222433 0.1125588 0.6222433 0.2785171 0.567542 0.422726 0.5829822 0.3446762 0.5829822 0.4819281 0.567542 0.4819281 0.5829822 0.422726 0.5829822 0.961614 0.567542 0.8174702 0.5829822 0.7588977 0.567542 0.961614 0.567542 0.961614 0.5829822 0.8943814 0.5829822 0.3634096 0.6976686 0.4402341 0.6222433 0.4402341 0.6976686 0.7588977 0.5829822 0.7400116 0.5856422 0.7400116 0.5829822 0.813821 0.5856422 0.7588977 0.5829822 0.8174702 0.5829822 0.961614 0.5829822 0.98 0.5868762 0.961614 0.5868762 0.03893399 0.5829822 0.01999998 0.5890001 0.01999998 0.5829822 0.7588977 0.02729916 0.7400116 0.0236119 0.7588977 0.0236119 0.7588977 0.0236119 0.961614 0.02729916 0.7588977 0.02729916 0.961614 0.02729916 0.98 0.0236119 0.98 0.02729916 0.03893399 0.02729916 0.01999998 0.0236119 0.03893399 0.0236119 0.03893399 0.0236119 0.2406992 0.02729916 0.03893399 0.02729916 0.2406992 0.02729916 0.259849 0.0236119 0.259849 0.02729916 0.2785171 0.02729916 0.259849 0.0236119 0.2785171 0.0236119 0.2785171 0.02729916 0.4819281 0.0236119 0.4819281 0.02729916 0.2406992 0.5829822 0.03893399 0.5890001 0.03893399 0.5829822 0.2406992 0.5829822 0.259849 0.5890001 0.2406992 0.5890001 0.2785171 0.5829822 0.259849 0.5890001 0.259849 0.5829822 0.3418452 0.5890001 0.2785171 0.5829822 0.3446762 0.5829822 0.4819281 0.5829822 0.5007091 0.5856422 0.4819281 0.5856422 0.5195838 0.5829822 0.5007091 0.5856422 0.5007091 0.5829822 0.7214474 0.5856422 0.5195838 0.5829822 0.7214474 0.5829822 0.7214474 0.5829822 0.7400116 0.5856422 0.7214474 0.5856422 0.7214474 0.02729916 0.7400116 0.0236119 0.7400116 0.02729916 0.5195838 0.02729916 0.7214474 0.0236119 0.7214474 0.02729916 0.5195838 0.02729916 0.5007091 0.0236119 0.5195838 0.0236119 0.4819281 0.02729916 0.5007091 0.0236119 0.5007091 0.02729916 0.1228232 0.7017862 0.1125588 0.6976686 0.1228232 0.6976686 0.1228232 0.6181257 0.1330823 0.6222433 0.1228232 0.6222433 0.1330823 0.6222433 0.1434419 0.6181257 0.1434419 0.6222433 0.1434419 0.7017862 0.1330823 0.6976686 0.1434419 0.6976686 0.1434419 0.6222433 0.1537548 0.6181257 0.1537548 0.6222433 0.1434419 0.6976686 0.1537548 0.7017862 0.1434419 0.7017862 0.1537548 0.6181257 0.3222136 0.6222433 0.1537548 0.6222433 0.3222136 0.7017862 0.1537548 0.6976686 0.3222136 0.6976686 0.3325266 0.6222433 0.3222136 0.6181257 0.3325266 0.6181257 0.3325266 0.6976686 0.3222136 0.7017862 0.3222136 0.6976686 0.3325266 0.6181257 0.342886 0.6222433 0.3325266 0.6222433 0.342886 0.6976686 0.3325266 0.7017862 0.3325266 0.6976686 0.3531452 0.7017862 0.342886 0.6976686 0.3531452 0.6976686 0.3531452 0.6181257 0.3634096 0.6222433 0.3531452 0.6222433 0.1125588 0.6976686 0.03573429 0.7017862 0.03573429 0.6976686 0.03573429 0.6181257 0.1125588 0.6222433 0.03573429 0.6222433 0.4819281 0.5829822 0.4265595 0.5856422 0.422726 0.5829822 0.961614 0.5829822 0.8957223 0.5868762 0.8943814 0.5829822 0.4402341 0.7017862 0.3634096 0.6976686 0.4402341 0.6976686 0.3634096 0.6222433 0.4402341 0.6181257 0.4402341 0.6222433 0.7400116 0.01999998 0.7588977 0.0236119 0.7400116 0.0236119 0.7588977 0.01999998 0.961614 0.0236119 0.7588977 0.0236119 0.961614 0.0236119 0.98 0.01999998 0.98 0.0236119 0.01999998 0.01999998 0.03893399 0.0236119 0.01999998 0.0236119 0.03893399 0.01999998 0.2406992 0.0236119 0.03893399 0.0236119 0.2406992 0.0236119 0.259849 0.01999998 0.259849 0.0236119 0.259849 0.01999998 0.2785171 0.0236119 0.259849 0.0236119 0.4819281 0.01999998 0.2785171 0.0236119 0.2785171 0.01999998 0.7214474 0.0236119 0.7400116 0.01999998 0.7400116 0.0236119 0.7214474 0.01999998 0.5195838 0.0236119 0.5195838 0.01999998 0.5007091 0.01999998 0.5195838 0.0236119 0.5007091 0.0236119 0.4819281 0.0236119 0.5007091 0.01999998 0.5007091 0.0236119 0.7588977 0.5856422 0.7400116 0.5896916 0.7400116 0.5856422 0.813821 0.5856422 0.7588977 0.5896916 0.7588977 0.5856422 0.98 0.5908409 0.961614 0.5868762 0.98 0.5868762 0.03893399 0.5890001 0.01999998 0.5930671 0.01999998 0.5890001 0.03893399 0.5930671 0.2406992 0.5890001 0.2406992 0.5930671 0.259849 0.5930671 0.2406992 0.5890001 0.259849 0.5890001 0.2785171 0.5890001 0.259849 0.5930671 0.259849 0.5890001 0.3418452 0.5890001 0.2785171 0.5930671 0.2785171 0.5890001 0.5007091 0.5896916 0.4819281 0.5856422 0.5007091 0.5856422 0.5195838 0.5856422 0.5007091 0.5896916 0.5007091 0.5856422 0.7214474 0.5896916 0.5195838 0.5856422 0.7214474 0.5856422 0.7400116 0.5896916 0.7214474 0.5856422 0.7400116 0.5856422 0.1228232 0.7059406 0.1330823 0.7017862 0.1330823 0.7059406 0.1228232 0.6139714 0.1125588 0.6181257 0.1125588 0.6139714 0.1434419 0.6139714 0.1330823 0.6181257 0.1330823 0.6139714 0.1434419 0.7059406 0.1330823 0.7017862 0.1434419 0.7017862 0.1434419 0.6181257 0.1537548 0.6139714 0.1537548 0.6181257 0.1537548 0.7059406 0.1434419 0.7017862 0.1537548 0.7017862 0.3222136 0.6139714 0.1537548 0.6181257 0.1537548 0.6139714 0.3222136 0.7059406 0.1537548 0.7017862 0.3222136 0.7017862 0.3222136 0.6139714 0.3325266 0.6181257 0.3222136 0.6181257 0.3325266 0.7017862 0.3222136 0.7059406 0.3222136 0.7017862 0.3325266 0.6139714 0.342886 0.6181257 0.3325266 0.6181257 0.3325266 0.7059406 0.342886 0.7017862 0.342886 0.7059406 0.3531452 0.7059406 0.3634096 0.7017862 0.3634096 0.7059406 0.3531452 0.6139714 0.342886 0.6181257 0.342886 0.6139714 0.1125588 0.7059406 0.03573429 0.7017862 0.1125588 0.7017862 0.1125588 0.6139714 0.03573429 0.6181257 0.03573429 0.6139714 0.4819281 0.5896916 0.4265595 0.5856422 0.4819281 0.5856422 0.961614 0.5908409 0.8957223 0.5868762 0.961614 0.5868762 0.3634096 0.7059406 0.4402341 0.7017862 0.4402341 0.7059406 0.3634096 0.6139714 0.4402341 0.6181257 0.3634096 0.6181257 0.342886 0.6976686 0.3531452 0.6222433 0.3531452 0.6976686 0.3634096 0.6976686 0.3531452 0.7017862 0.3531452 0.6976686 0.342886 0.6222433 0.3531452 0.6181257 0.3531452 0.6222433 0.342886 0.7017862 0.3531452 0.7059406 0.342886 0.7059406 0.3634096 0.6181257 0.3531452 0.6139714 0.3634096 0.6139714 0.1125588 0.6222433 0.1228232 0.6976686 0.1125588 0.6976686 0.1330823 0.6976686 0.1228232 0.7017862 0.1228232 0.6976686 0.1125588 0.6222433 0.1228232 0.6181257 0.1228232 0.6222433 0.1125588 0.7017862 0.1228232 0.7059406 0.1125588 0.7059406 0.1330823 0.6181257 0.1228232 0.6139714 0.1330823 0.6139714 0.7588977 0.567542 0.7588977 0.5829822 0.7400116 0.5829822 0.7588977 0.559877 0.7588977 0.567542 0.7400116 0.567542 0.961614 0.567542 0.98 0.567542 0.98 0.5829822 0.7400116 0.5522081 0.7588977 0.5522081 0.7588977 0.559877 0.7588977 0.567542 0.7588977 0.559877 0.961614 0.559877 0.961614 0.559877 0.98 0.559877 0.98 0.567542 0.03893399 0.567542 0.03893399 0.5829822 0.01999998 0.5829822 0.7588977 0.05837219 0.7588977 0.5522081 0.7400116 0.5522081 0.961614 0.05837219 0.961614 0.5522081 0.7588977 0.5522081 0.7588977 0.05062824 0.7588977 0.05837219 0.7400116 0.05837219 0.98 0.5522081 0.98 0.559877 0.961614 0.559877 0.7400116 0.04290962 0.7588977 0.04290962 0.7588977 0.05062824 0.03893399 0.559877 0.03893399 0.567542 0.01999998 0.567542 0.7588977 0.02729916 0.7588977 0.04290962 0.7400116 0.04290962 0.961614 0.04290962 0.7588977 0.04290962 0.7588977 0.02729916 0.961614 0.05062824 0.7588977 0.05062824 0.7588977 0.04290962 0.961614 0.02729916 0.98 0.02729916 0.98 0.04290962 0.98 0.04290962 0.98 0.05062824 0.961614 0.05062824 0.961614 0.05062824 0.98 0.05062824 0.98 0.05837219 0.98 0.5522081 0.961614 0.5522081 0.961614 0.05837219 0.03893399 0.05062824 0.03893399 0.05837219 0.01999998 0.05837219 0.03893399 0.05837219 0.03893399 0.5522081 0.01999998 0.5522081 0.01999998 0.04290962 0.03893399 0.04290962 0.03893399 0.05062824 0.03893399 0.02729916 0.03893399 0.04290962 0.01999998 0.04290962 0.2406992 0.04290962 0.03893399 0.04290962 0.03893399 0.02729916 0.2406992 0.05062824 0.03893399 0.05062824 0.03893399 0.04290962 0.2406992 0.02729916 0.259849 0.02729916 0.259849 0.04290962 0.259849 0.04290962 0.259849 0.05062824 0.2406992 0.05062824 0.2785171 0.02729916 0.2785171 0.04290962 0.259849 0.04290962 0.2785171 0.05062824 0.259849 0.05062824 0.259849 0.04290962 0.259849 0.05837219 0.2406992 0.05837219 0.2406992 0.05062824 0.4819281 0.04290962 0.2785171 0.04290962 0.2785171 0.02729916 0.2406992 0.5522081 0.03893399 0.5522081 0.03893399 0.05837219 0.03893399 0.559877 0.01999998 0.559877 0.01999998 0.5522081 0.2406992 0.559877 0.03893399 0.559877 0.03893399 0.5522081 0.2406992 0.559877 0.2406992 0.567542 0.03893399 0.567542 0.2406992 0.5829822 0.03893399 0.5829822 0.03893399 0.567542 0.2406992 0.567542 0.259849 0.567542 0.259849 0.5829822 0.2785171 0.567542 0.2785171 0.5829822 0.259849 0.5829822 0.259849 0.567542 0.2406992 0.567542 0.2406992 0.559877 0.259849 0.5522081 0.259849 0.559877 0.2406992 0.559877 0.259849 0.5522081 0.2406992 0.5522081 0.2406992 0.05837219 0.2785171 0.559877 0.259849 0.559877 0.259849 0.5522081 0.2785171 0.05837219 0.2785171 0.5522081 0.259849 0.5522081 0.2785171 0.559877 0.2785171 0.567542 0.259849 0.567542 0.2785171 0.559877 0.4819281 0.559877 0.4819281 0.567542 0.4819281 0.567542 0.5007091 0.567542 0.5007091 0.5829822 0.5195838 0.567542 0.5195838 0.5829822 0.5007091 0.5829822 0.2785171 0.559877 0.2785171 0.5522081 0.4819281 0.5522081 0.5007091 0.567542 0.4819281 0.567542 0.4819281 0.559877 0.5007091 0.5522081 0.5007091 0.559877 0.4819281 0.559877 0.5007091 0.567542 0.5007091 0.559877 0.5195838 0.559877 0.7214474 0.567542 0.7214474 0.5829822 0.5195838 0.5829822 0.5195838 0.559877 0.7214474 0.559877 0.7214474 0.567542 0.7214474 0.567542 0.7400116 0.567542 0.7400116 0.5829822 0.7214474 0.559877 0.7400116 0.559877 0.7400116 0.567542 0.7400116 0.5522081 0.7400116 0.559877 0.7214474 0.559877 0.5195838 0.559877 0.5195838 0.5522081 0.7214474 0.5522081 0.7214474 0.05837219 0.7400116 0.05837219 0.7400116 0.5522081 0.5007091 0.5522081 0.5195838 0.5522081 0.5195838 0.559877 0.5195838 0.5522081 0.5195838 0.05837219 0.7214474 0.05837219 0.7214474 0.05062824 0.7400116 0.05062824 0.7400116 0.05837219 0.5195838 0.05062824 0.7214474 0.05062824 0.7214474 0.05837219 0.5195838 0.05837219 0.5195838 0.5522081 0.5007091 0.5522081 0.4819281 0.05837219 0.5007091 0.05837219 0.5007091 0.5522081 0.5007091 0.05837219 0.5007091 0.05062824 0.5195838 0.05062824 0.7400116 0.04290962 0.7400116 0.05062824 0.7214474 0.05062824 0.7214474 0.02729916 0.7400116 0.02729916 0.7400116 0.04290962 0.5195838 0.02729916 0.7214474 0.02729916 0.7214474 0.04290962 0.5007091 0.04290962 0.5007091 0.02729916 0.5195838 0.02729916 0.5007091 0.04290962 0.5195838 0.04290962 0.5195838 0.05062824 0.5007091 0.04290962 0.4819281 0.04290962 0.4819281 0.02729916 0.4819281 0.05062824 0.4819281 0.04290962 0.5007091 0.04290962 0.4819281 0.05062824 0.5007091 0.05062824 0.5007091 0.05837219 0.2785171 0.5522081 0.2785171 0.05837219 0.4819281 0.05837219 0.2785171 0.05062824 0.2785171 0.04290962 0.4819281 0.04290962 0.4819281 0.05837219 0.2785171 0.05837219 0.2785171 0.05062824 0.2785171 0.05062824 0.2785171 0.05837219 0.259849 0.05837219 0.2406992 0.05062824 0.2406992 0.05837219 0.03893399 0.05837219 0.5195838 0.05062824 0.5195838 0.04290962 0.7214474 0.04290962 0.961614 0.05062824 0.961614 0.05837219 0.7588977 0.05837219 0.7588977 0.5522081 0.961614 0.5522081 0.961614 0.559877 0.1228232 0.6222433 0.1330823 0.6222433 0.1330823 0.6976686 0.1330823 0.6222433 0.1434419 0.6222433 0.1434419 0.6976686 0.1434419 0.6222433 0.1537548 0.6222433 0.1537548 0.6976686 0.1537548 0.6222433 0.3222136 0.6222433 0.3222136 0.6976686 0.3222136 0.6976686 0.3222136 0.6222433 0.3325266 0.6222433 0.3325266 0.6976686 0.3325266 0.6222433 0.342886 0.6222433 0.3531452 0.6222433 0.3634096 0.6222433 0.3634096 0.6976686 0.1125588 0.6976686 0.03573429 0.6976686 0.03573429 0.6222433 0.2785171 0.567542 0.4819281 0.567542 0.422726 0.5829822 0.961614 0.567542 0.8943814 0.5829822 0.8174702 0.5829822 0.3634096 0.6976686 0.3634096 0.6222433 0.4402341 0.6222433 0.7588977 0.5829822 0.7588977 0.5856422 0.7400116 0.5856422 0.813821 0.5856422 0.7588977 0.5856422 0.7588977 0.5829822 0.961614 0.5829822 0.98 0.5829822 0.98 0.5868762 0.03893399 0.5829822 0.03893399 0.5890001 0.01999998 0.5890001 0.7588977 0.02729916 0.7400116 0.02729916 0.7400116 0.0236119 0.7588977 0.0236119 0.961614 0.0236119 0.961614 0.02729916 0.961614 0.02729916 0.961614 0.0236119 0.98 0.0236119 0.03893399 0.02729916 0.01999998 0.02729916 0.01999998 0.0236119 0.03893399 0.0236119 0.2406992 0.0236119 0.2406992 0.02729916 0.2406992 0.02729916 0.2406992 0.0236119 0.259849 0.0236119 0.2785171 0.02729916 0.259849 0.02729916 0.259849 0.0236119 0.2785171 0.02729916 0.2785171 0.0236119 0.4819281 0.0236119 0.2406992 0.5829822 0.2406992 0.5890001 0.03893399 0.5890001 0.2406992 0.5829822 0.259849 0.5829822 0.259849 0.5890001 0.2785171 0.5829822 0.2785171 0.5890001 0.259849 0.5890001 0.3418452 0.5890001 0.2785171 0.5890001 0.2785171 0.5829822 0.4819281 0.5829822 0.5007091 0.5829822 0.5007091 0.5856422 0.5195838 0.5829822 0.5195838 0.5856422 0.5007091 0.5856422 0.7214474 0.5856422 0.5195838 0.5856422 0.5195838 0.5829822 0.7214474 0.5829822 0.7400116 0.5829822 0.7400116 0.5856422 0.7214474 0.02729916 0.7214474 0.0236119 0.7400116 0.0236119 0.5195838 0.02729916 0.5195838 0.0236119 0.7214474 0.0236119 0.5195838 0.02729916 0.5007091 0.02729916 0.5007091 0.0236119 0.4819281 0.02729916 0.4819281 0.0236119 0.5007091 0.0236119 0.1228232 0.7017862 0.1125588 0.7017862 0.1125588 0.6976686 0.1228232 0.6181257 0.1330823 0.6181257 0.1330823 0.6222433 0.1330823 0.6222433 0.1330823 0.6181257 0.1434419 0.6181257 0.1434419 0.7017862 0.1330823 0.7017862 0.1330823 0.6976686 0.1434419 0.6222433 0.1434419 0.6181257 0.1537548 0.6181257 0.1434419 0.6976686 0.1537548 0.6976686 0.1537548 0.7017862 0.1537548 0.6181257 0.3222136 0.6181257 0.3222136 0.6222433 0.3222136 0.7017862 0.1537548 0.7017862 0.1537548 0.6976686 0.3325266 0.6222433 0.3222136 0.6222433 0.3222136 0.6181257 0.3325266 0.6976686 0.3325266 0.7017862 0.3222136 0.7017862 0.3325266 0.6181257 0.342886 0.6181257 0.342886 0.6222433 0.342886 0.6976686 0.342886 0.7017862 0.3325266 0.7017862 0.3531452 0.7017862 0.342886 0.7017862 0.342886 0.6976686 0.3531452 0.6181257 0.3634096 0.6181257 0.3634096 0.6222433 0.1125588 0.6976686 0.1125588 0.7017862 0.03573429 0.7017862 0.03573429 0.6181257 0.1125588 0.6181257 0.1125588 0.6222433 0.4819281 0.5829822 0.4819281 0.5856422 0.4265595 0.5856422 0.961614 0.5829822 0.961614 0.5868762 0.8957223 0.5868762 0.4402341 0.7017862 0.3634096 0.7017862 0.3634096 0.6976686 0.3634096 0.6222433 0.3634096 0.6181257 0.4402341 0.6181257 0.7400116 0.01999998 0.7588977 0.01999998 0.7588977 0.0236119 0.7588977 0.01999998 0.961614 0.01999998 0.961614 0.0236119 0.961614 0.0236119 0.961614 0.01999998 0.98 0.01999998 0.01999998 0.01999998 0.03893399 0.01999998 0.03893399 0.0236119 0.03893399 0.01999998 0.2406992 0.01999998 0.2406992 0.0236119 0.2406992 0.0236119 0.2406992 0.01999998 0.259849 0.01999998 0.259849 0.01999998 0.2785171 0.01999998 0.2785171 0.0236119 0.4819281 0.01999998 0.4819281 0.0236119 0.2785171 0.0236119 0.7214474 0.0236119 0.7214474 0.01999998 0.7400116 0.01999998 0.7214474 0.01999998 0.7214474 0.0236119 0.5195838 0.0236119 0.5007091 0.01999998 0.5195838 0.01999998 0.5195838 0.0236119 0.4819281 0.0236119 0.4819281 0.01999998 0.5007091 0.01999998 0.7588977 0.5856422 0.7588977 0.5896916 0.7400116 0.5896916 0.813821 0.5856422 0.813821 0.5896916 0.7588977 0.5896916 0.98 0.5908409 0.961614 0.5908409 0.961614 0.5868762 0.03893399 0.5890001 0.03893399 0.5930671 0.01999998 0.5930671 0.03893399 0.5930671 0.03893399 0.5890001 0.2406992 0.5890001 0.259849 0.5930671 0.2406992 0.5930671 0.2406992 0.5890001 0.2785171 0.5890001 0.2785171 0.5930671 0.259849 0.5930671 0.3418452 0.5890001 0.3418452 0.5930671 0.2785171 0.5930671 0.5007091 0.5896916 0.4819281 0.5896916 0.4819281 0.5856422 0.5195838 0.5856422 0.5195838 0.5896916 0.5007091 0.5896916 0.7214474 0.5896916 0.5195838 0.5896916 0.5195838 0.5856422 0.7400116 0.5896916 0.7214474 0.5896916 0.7214474 0.5856422 0.1228232 0.7059406 0.1228232 0.7017862 0.1330823 0.7017862 0.1228232 0.6139714 0.1228232 0.6181257 0.1125588 0.6181257 0.1434419 0.6139714 0.1434419 0.6181257 0.1330823 0.6181257 0.1434419 0.7059406 0.1330823 0.7059406 0.1330823 0.7017862 0.1434419 0.6181257 0.1434419 0.6139714 0.1537548 0.6139714 0.1537548 0.7059406 0.1434419 0.7059406 0.1434419 0.7017862 0.3222136 0.6139714 0.3222136 0.6181257 0.1537548 0.6181257 0.3222136 0.7059406 0.1537548 0.7059406 0.1537548 0.7017862 0.3222136 0.6139714 0.3325266 0.6139714 0.3325266 0.6181257 0.3325266 0.7017862 0.3325266 0.7059406 0.3222136 0.7059406 0.3325266 0.6139714 0.342886 0.6139714 0.342886 0.6181257 0.3325266 0.7059406 0.3325266 0.7017862 0.342886 0.7017862 0.3531452 0.7059406 0.3531452 0.7017862 0.3634096 0.7017862 0.3531452 0.6139714 0.3531452 0.6181257 0.342886 0.6181257 0.1125588 0.7059406 0.03573429 0.7059406 0.03573429 0.7017862 0.1125588 0.6139714 0.1125588 0.6181257 0.03573429 0.6181257 0.4819281 0.5896916 0.4265595 0.5896916 0.4265595 0.5856422 0.961614 0.5908409 0.8957223 0.5908409 0.8957223 0.5868762 0.3634096 0.7059406 0.3634096 0.7017862 0.4402341 0.7017862 0.3634096 0.6139714 0.4402341 0.6139714 0.4402341 0.6181257 0.342886 0.6976686 0.342886 0.6222433 0.3531452 0.6222433 0.3634096 0.6976686 0.3634096 0.7017862 0.3531452 0.7017862 0.342886 0.6222433 0.342886 0.6181257 0.3531452 0.6181257 0.342886 0.7017862 0.3531452 0.7017862 0.3531452 0.7059406 0.3634096 0.6181257 0.3531452 0.6181257 0.3531452 0.6139714 0.1125588 0.6222433 0.1228232 0.6222433 0.1228232 0.6976686 0.1330823 0.6976686 0.1330823 0.7017862 0.1228232 0.7017862 0.1125588 0.6222433 0.1125588 0.6181257 0.1228232 0.6181257 0.1125588 0.7017862 0.1228232 0.7017862 0.1228232 0.7059406 0.1330823 0.6181257 0.1228232 0.6181257 0.1228232 0.6139714</float_array>
          <technique_common>
            <accessor source="#Mesh_001-mesh-map-0-array" count="1158" stride="2">
              <param name="S" type="float"/>
              <param name="T" type="float"/>
            </accessor>
          </technique_common>
        </source>
        <source id="Mesh_001-mesh-map-1">
          <float_array id="Mesh_001-mesh-map-1-array" count="2316">0.05545043 0.4291992 0.04083251 0.4418945 0.0397644 0.4306641 0.0536499 0.4238281 0.0397644 0.4306641 0.03799438 0.4248047 0.05636596 0.440918 0.05545043 0.4291992 0.136825 0.4367676 0.2167968 0.4213867 0.2329101 0.4321289 0.2172851 0.4326172 0.03887939 0.4189453 0.0536499 0.4238281 0.03799438 0.4248047 0.05545043 0.4291992 0.2176513 0.4150391 0.2167968 0.4213867 0.2176513 0.4150391 0.2325439 0.4204102 0.2167968 0.4213867 0.2487792 0.4199219 0.2329101 0.4321289 0.2325439 0.4204102 0.03161621 0.05322265 0.03887939 0.4189453 0.01505279 0.05419921 0.2012939 0.04443359 0.05462646 0.4179688 0.03161621 0.05322265 0.02993774 0.04785156 0.01505279 0.05419921 0.01336669 0.04785156 0.2320556 0.4091797 0.2176513 0.4150391 0.2161865 0.409668 0.0145874 0.04199218 0.02993774 0.04785156 0.01336669 0.04785156 0.2473144 0.4140625 0.2325439 0.4204102 0.2322998 0.4145508 0.03089904 0.03027343 0.0145874 0.04199218 0.01451873 0.03027343 0.2010498 0.03271484 0.03089904 0.03027343 0.2009277 0.02099609 0.2023925 0.03857421 0.03121948 0.04199218 0.2010498 0.03271484 0.2009277 0.02099609 0.2176513 0.03271484 0.2010498 0.03271484 0.2176513 0.03271484 0.2023925 0.03857421 0.2010498 0.03271484 0.2023925 0.03857421 0.2180175 0.04394531 0.2012939 0.04443359 0.2320556 0.4091797 0.2012939 0.04443359 0.2180175 0.04394531 0.2336425 0.03759765 0.2180175 0.04394531 0.2178955 0.03808593 0.2352294 0.04345703 0.2320556 0.4091797 0.2180175 0.04394531 0.2176513 0.03271484 0.2336425 0.03759765 0.2178955 0.03808593 0.234375 0.02050781 0.2176513 0.03271484 0.2175292 0.02099609 0.4047852 0.02734375 0.234375 0.02050781 0.4047852 0.01611328 0.40625 0.03320312 0.2348632 0.03173828 0.4047852 0.02734375 0.4047852 0.01611328 0.421875 0.02734375 0.4047852 0.02734375 0.421875 0.02734375 0.40625 0.03320312 0.4047852 0.02734375 0.4384766 0.015625 0.421875 0.02734375 0.421875 0.015625 0.4372559 0.03320312 0.421875 0.02734375 0.4384766 0.02734375 0.4223633 0.0390625 0.40625 0.03320312 0.4221192 0.03320312 0.6083984 0.02734375 0.4384766 0.015625 0.6088867 0.015625 0.4099121 0.4047852 0.2352294 0.04345703 0.4050293 0.0390625 0.2473144 0.4140625 0.2320556 0.4091797 0.248291 0.4086914 0.411377 0.4101563 0.248291 0.4086914 0.4099121 0.4047852 0.411377 0.4101563 0.2487792 0.4199219 0.2473144 0.4140625 0.4106445 0.4277344 0.2487792 0.4199219 0.4104004 0.4160156 0.4104004 0.4160156 0.4267578 0.4272461 0.4106445 0.4277344 0.442627 0.4155274 0.4267578 0.4272461 0.4267578 0.4155274 0.4267578 0.4155274 0.411377 0.4101563 0.4265137 0.409668 0.4262695 0.4042969 0.411377 0.4101563 0.4099121 0.4047852 0.4262695 0.4042969 0.4050293 0.0390625 0.4223633 0.0390625 0.4414063 0.4101563 0.4262695 0.4042969 0.4423828 0.4042969 0.4389649 0.0390625 0.4262695 0.4042969 0.4223633 0.0390625 0.4414063 0.4101563 0.4267578 0.4155274 0.4265137 0.409668 0.442627 0.4272461 0.442627 0.4155274 0.5233042 0.4272461 0.4414063 0.4101563 0.6040039 0.4155274 0.442627 0.4155274 0.6040039 0.4155274 0.6201172 0.4272461 0.6040039 0.4272461 0.6362305 0.4165039 0.6201172 0.4272461 0.6201172 0.4155274 0.4414063 0.4101563 0.6044922 0.4042969 0.6054688 0.4101563 0.6201172 0.4155274 0.6054688 0.4101563 0.6206055 0.4101563 0.6210938 0.4042969 0.6054688 0.4101563 0.6044922 0.4042969 0.6201172 0.4155274 0.6352539 0.4106445 0.6362305 0.4165039 0.7978516 0.4204102 0.6362305 0.4277344 0.6362305 0.4165039 0.6352539 0.4106445 0.7978516 0.4204102 0.6362305 0.4165039 0.7978516 0.4204102 0.8125 0.4326172 0.7973633 0.4316406 0.7998047 0.4145508 0.8134766 0.4208984 0.7978516 0.4204102 0.8139649 0.4091797 0.7998047 0.4145508 0.7983399 0.4086914 0.6352539 0.4106445 0.7983399 0.4086914 0.7998047 0.4145508 0.8115234 0.04345703 0.8139649 0.4091797 0.7983399 0.4086914 0.6210938 0.4042969 0.6352539 0.4106445 0.6206055 0.4101563 0.6367188 0.4047852 0.8115234 0.04345703 0.7983399 0.4086914 0.8134766 0.03808593 0.828125 0.04394531 0.8115234 0.04345703 0.640625 0.0336914 0.8115234 0.04345703 0.6416016 0.03955078 0.6416016 0.03955078 0.6210938 0.4042969 0.6245117 0.0390625 0.6079102 0.0390625 0.6210938 0.4042969 0.6044922 0.4042969 0.6245117 0.0390625 0.640625 0.0336914 0.6416016 0.03955078 0.8286133 0.03222656 0.8134766 0.03808593 0.8120117 0.03222656 0.8125 0.02050781 0.8286133 0.03222656 0.8120117 0.03222656 0.6420899 0.01611328 0.8120117 0.03222656 0.6420899 0.02783203 0.625 0.02734375 0.6420899 0.01611328 0.6420899 0.02783203 0.625 0.02734375 0.640625 0.0336914 0.625 0.03320312 0.625 0.02734375 0.6088867 0.015625 0.6254883 0.015625 0.6098633 0.03320312 0.625 0.02734375 0.625 0.03320312 0.6098633 0.03320312 0.6245117 0.0390625 0.6079102 0.0390625 0.4423828 0.4042969 0.6079102 0.0390625 0.6044922 0.4042969 0.4372559 0.03320312 0.6083984 0.02734375 0.6098633 0.03320312 0.6079102 0.0390625 0.4372559 0.03320312 0.6098633 0.03320312 0.4372559 0.03320312 0.4223633 0.0390625 0.4221192 0.03320312 0.40625 0.03320312 0.2352294 0.04345703 0.2336425 0.03759765 0.640625 0.0336914 0.8120117 0.03222656 0.8134766 0.03808593 0.2023925 0.03857421 0.03161621 0.05322265 0.02993774 0.04785156 0.05462646 0.4179688 0.2176513 0.4150391 0.0536499 0.4238281 0.4437256 0.920044 0.4516602 0.9821472 0.4437256 0.9821472 0.4516602 0.920044 0.4604492 0.9821472 0.4516602 0.9821472 0.4604492 0.920044 0.4694824 0.9821472 0.4604492 0.9821472 0.4694824 0.920044 0.6088867 0.9821472 0.4694824 0.9821472 0.6088867 0.9821472 0.6181641 0.920044 0.6181641 0.9821472 0.6181641 0.9821472 0.6264649 0.920044 0.6264649 0.9821472 0.6345215 0.920044 0.6425781 0.9821472 0.6345215 0.9821472 0.6420899 0.01611328 0.4187011 0.4125978 0.6254883 0.015625 0.442627 0.4155274 0.563654 0.4272461 0.5233042 0.4272461 0.6040039 0.4155274 0.6040039 0.4272461 0.563654 0.4272461 0.2167968 0.4213867 0.136825 0.4367676 0.05545043 0.4291992 0.2167968 0.4213867 0.2172851 0.4326172 0.177055 0.4346924 0.4694824 0.920044 0.6181641 0.920044 0.6181641 0.9821472 0.05636596 0.440918 0.04083251 0.4418945 0.04083251 0.4418945 0.136825 0.4367676 0.05636596 0.440918 0.136825 0.4367676 0.2172851 0.4326172 0.2329101 0.4321289 0.2172851 0.4326172 0.2491455 0.4316406 0.2329101 0.4321289 0.2329101 0.4321289 0.03089904 0.03027343 0.01451873 0.03027343 0.03089904 0.03027343 0.03089904 0.03027343 0.2009277 0.02099609 0.03089904 0.03027343 0.2009277 0.02099609 0.2175292 0.02099609 0.2175292 0.02099609 0.234375 0.02050781 0.2175292 0.02099609 0.234375 0.02050781 0.234375 0.02050781 0.4047852 0.01611328 0.234375 0.02050781 0.4047852 0.01611328 0.421875 0.015625 0.421875 0.015625 0.4384766 0.015625 0.421875 0.015625 0.4384766 0.015625 0.4384766 0.015625 0.6088867 0.015625 0.6088867 0.015625 0.4106445 0.4277344 0.2491455 0.4316406 0.2491455 0.4316406 0.4106445 0.4277344 0.4267578 0.4272461 0.4106445 0.4277344 0.442627 0.4272461 0.4267578 0.4272461 0.4267578 0.4272461 0.5233042 0.4272461 0.442627 0.4272461 0.5233042 0.4272461 0.6040039 0.4272461 0.6201172 0.4272461 0.6040039 0.4272461 0.6362305 0.4277344 0.6201172 0.4272461 0.6201172 0.4272461 0.7973633 0.4316406 0.6362305 0.4277344 0.7973633 0.4316406 0.7973633 0.4316406 0.8125 0.4326172 0.7973633 0.4316406 0.8125 0.02050781 0.8286133 0.02099609 0.8286133 0.02099609 0.6420899 0.01611328 0.8125 0.02050781 0.8125 0.02050781 0.6420899 0.01611328 0.6254883 0.015625 0.6420899 0.01611328 0.6088867 0.015625 0.6254883 0.015625 0.6254883 0.015625 0.4437256 0.9821472 0.435791 0.9821472 0.4437256 0.9821472 0.4437256 0.920044 0.4516602 0.920044 0.4437256 0.920044 0.4516602 0.920044 0.4604492 0.920044 0.4604492 0.920044 0.4604492 0.9821472 0.4516602 0.9821472 0.4604492 0.9821472 0.4604492 0.920044 0.4694824 0.920044 0.4694824 0.920044 0.4604492 0.9821472 0.4694824 0.9821472 0.4604492 0.9821472 0.4694824 0.920044 0.6088867 0.920044 0.4694824 0.920044 0.6088867 0.9821472 0.4694824 0.9821472 0.6088867 0.9821472 0.6181641 0.920044 0.6088867 0.920044 0.6181641 0.920044 0.6181641 0.9821472 0.6088867 0.9821472 0.6088867 0.9821472 0.6181641 0.920044 0.6264649 0.920044 0.6181641 0.920044 0.6264649 0.9821472 0.6181641 0.9821472 0.6181641 0.9821472 0.6345215 0.9821472 0.6264649 0.9821472 0.6345215 0.9821472 0.6345215 0.920044 0.6425781 0.920044 0.6345215 0.920044 0.6420899 0.01611328 0.4113771 0.4101561 0.4113771 0.4101561 0.4187011 0.4125978 0.6254883 0.015625 0.4187011 0.4125978 0.6040039 0.4272461 0.563654 0.4272461 0.563654 0.4272461 0.2172851 0.4326172 0.177055 0.4346924 0.177055 0.4346924 0.6181641 0.9821472 0.4694824 0.920044 0.6181641 0.9821472 0.4694824 0.9821472 0.6181641 0.920044 0.6181641 0.920044 0.01451873 0.03027343 0.03089904 0.03027343 0.01451873 0.03027343 0.03089904 0.03027343 0.2009277 0.02099609 0.03089904 0.03027343 0.2009277 0.02099609 0.2175292 0.02099609 0.2175292 0.02099609 0.2175292 0.02099609 0.234375 0.02050781 0.2175292 0.02099609 0.234375 0.02050781 0.4047852 0.01611328 0.234375 0.02050781 0.4047852 0.01611328 0.421875 0.015625 0.421875 0.015625 0.421875 0.015625 0.4384766 0.015625 0.421875 0.015625 0.6088867 0.015625 0.4384766 0.015625 0.4384766 0.015625 0.8125 0.02050781 0.8286133 0.02099609 0.8286133 0.02099609 0.8125 0.02050781 0.6420899 0.01611328 0.6420899 0.01611328 0.6254883 0.015625 0.6420899 0.01611328 0.6254883 0.015625 0.6088867 0.015625 0.6254883 0.015625 0.6254883 0.015625 0.05636596 0.440918 0.04083251 0.4418945 0.04083251 0.4418945 0.136825 0.4367676 0.05636596 0.440918 0.05636596 0.440918 0.2329101 0.4321289 0.2172851 0.4326172 0.2329101 0.4321289 0.2491455 0.4316406 0.2329101 0.4321289 0.2329101 0.4321289 0.2491455 0.4316406 0.4106445 0.4277344 0.4106445 0.4277344 0.4267578 0.4272461 0.4106445 0.4277344 0.4267578 0.4272461 0.442627 0.4272461 0.4267578 0.4272461 0.4267578 0.4272461 0.5233042 0.4272461 0.442627 0.4272461 0.442627 0.4272461 0.6201172 0.4272461 0.6040039 0.4272461 0.6201172 0.4272461 0.6362305 0.4277344 0.6201172 0.4272461 0.6201172 0.4272461 0.7973633 0.4316406 0.6362305 0.4277344 0.7973633 0.4316406 0.8125 0.4326172 0.7973633 0.4316406 0.8125 0.4326172 0.4437256 0.9821472 0.4516602 0.9821472 0.4516602 0.9821472 0.4437256 0.920044 0.435791 0.920044 0.435791 0.920044 0.4604492 0.920044 0.4516602 0.920044 0.4516602 0.920044 0.4604492 0.9821472 0.4516602 0.9821472 0.4604492 0.9821472 0.4604492 0.920044 0.4694824 0.920044 0.4694824 0.920044 0.4694824 0.9821472 0.4604492 0.9821472 0.4694824 0.9821472 0.6088867 0.920044 0.4694824 0.920044 0.4694824 0.920044 0.6088867 0.9821472 0.4694824 0.9821472 0.6088867 0.9821472 0.6088867 0.920044 0.6181641 0.920044 0.6088867 0.920044 0.6181641 0.9821472 0.6088867 0.9821472 0.6088867 0.9821472 0.6181641 0.920044 0.6264649 0.920044 0.6181641 0.920044 0.6181641 0.9821472 0.6264649 0.9821472 0.6264649 0.9821472 0.6345215 0.9821472 0.6425781 0.9821472 0.6425781 0.9821472 0.6345215 0.920044 0.6264649 0.920044 0.6264649 0.920044 0.6420899 0.01611328 0.4113771 0.4101561 0.6420899 0.01611328 0.6254883 0.015625 0.4187011 0.4125978 0.4187011 0.4125978 0.6040039 0.4272461 0.563654 0.4272461 0.6040039 0.4272461 0.2172851 0.4326172 0.177055 0.4346924 0.2172851 0.4326172 0.4694824 0.920044 0.6181641 0.9821472 0.6181641 0.9821472 0.4694824 0.9821472 0.6181641 0.920044 0.4694824 0.9821472 0.6264649 0.9821472 0.6345215 0.920044 0.6345215 0.9821472 0.6425781 0.9821472 0.6345215 0.9821472 0.6345215 0.9821472 0.6264649 0.920044 0.6345215 0.920044 0.6345215 0.920044 0.6264649 0.9821472 0.6345215 0.9821472 0.6264649 0.9821472 0.6425781 0.920044 0.6345215 0.920044 0.6425781 0.920044 0.435791 0.920044 0.4437256 0.9821472 0.435791 0.9821472 0.4516602 0.9821472 0.4437256 0.9821472 0.4437256 0.9821472 0.435791 0.920044 0.4437256 0.920044 0.4437256 0.920044 0.435791 0.9821472 0.4437256 0.9821472 0.435791 0.9821472 0.4516602 0.920044 0.4437256 0.920044 0.4516602 0.920044 0.05545043 0.4291992 0.05636596 0.440918 0.04083251 0.4418945 0.0536499 0.4238281 0.05545043 0.4291992 0.0397644 0.4306641 0.2167968 0.4213867 0.2325439 0.4204102 0.2329101 0.4321289 0.03887939 0.4189453 0.05462646 0.4179688 0.0536499 0.4238281 0.05545043 0.4291992 0.0536499 0.4238281 0.2176513 0.4150391 0.2176513 0.4150391 0.2322998 0.4145508 0.2325439 0.4204102 0.2487792 0.4199219 0.2491455 0.4316406 0.2329101 0.4321289 0.03161621 0.05322265 0.05462646 0.4179688 0.03887939 0.4189453 0.2012939 0.04443359 0.2161865 0.409668 0.05462646 0.4179688 0.02993774 0.04785156 0.03161621 0.05322265 0.01505279 0.05419921 0.2320556 0.4091797 0.2322998 0.4145508 0.2176513 0.4150391 0.0145874 0.04199218 0.03121948 0.04199218 0.02993774 0.04785156 0.2473144 0.4140625 0.2487792 0.4199219 0.2325439 0.4204102 0.03089904 0.03027343 0.03121948 0.04199218 0.0145874 0.04199218 0.2010498 0.03271484 0.03121948 0.04199218 0.03089904 0.03027343 0.2023925 0.03857421 0.02993774 0.04785156 0.03121948 0.04199218 0.2009277 0.02099609 0.2175292 0.02099609 0.2176513 0.03271484 0.2176513 0.03271484 0.2178955 0.03808593 0.2023925 0.03857421 0.2023925 0.03857421 0.2178955 0.03808593 0.2180175 0.04394531 0.2320556 0.4091797 0.2161865 0.409668 0.2012939 0.04443359 0.2336425 0.03759765 0.2352294 0.04345703 0.2180175 0.04394531 0.2352294 0.04345703 0.248291 0.4086914 0.2320556 0.4091797 0.2176513 0.03271484 0.2348632 0.03173828 0.2336425 0.03759765 0.234375 0.02050781 0.2348632 0.03173828 0.2176513 0.03271484 0.4047852 0.02734375 0.2348632 0.03173828 0.234375 0.02050781 0.40625 0.03320312 0.2336425 0.03759765 0.2348632 0.03173828 0.4047852 0.01611328 0.421875 0.015625 0.421875 0.02734375 0.421875 0.02734375 0.4221192 0.03320312 0.40625 0.03320312 0.4384766 0.015625 0.4384766 0.02734375 0.421875 0.02734375 0.4372559 0.03320312 0.4221192 0.03320312 0.421875 0.02734375 0.4223633 0.0390625 0.4050293 0.0390625 0.40625 0.03320312 0.6083984 0.02734375 0.4384766 0.02734375 0.4384766 0.015625 0.4099121 0.4047852 0.248291 0.4086914 0.2352294 0.04345703 0.2473144 0.4140625 0.2322998 0.4145508 0.2320556 0.4091797 0.411377 0.4101563 0.2473144 0.4140625 0.248291 0.4086914 0.411377 0.4101563 0.4104004 0.4160156 0.2487792 0.4199219 0.4106445 0.4277344 0.2491455 0.4316406 0.2487792 0.4199219 0.4104004 0.4160156 0.4267578 0.4155274 0.4267578 0.4272461 0.442627 0.4155274 0.442627 0.4272461 0.4267578 0.4272461 0.4267578 0.4155274 0.4104004 0.4160156 0.411377 0.4101563 0.4262695 0.4042969 0.4265137 0.409668 0.411377 0.4101563 0.4262695 0.4042969 0.4099121 0.4047852 0.4050293 0.0390625 0.4414063 0.4101563 0.4265137 0.409668 0.4262695 0.4042969 0.4389649 0.0390625 0.4423828 0.4042969 0.4262695 0.4042969 0.4414063 0.4101563 0.442627 0.4155274 0.4267578 0.4155274 0.4414063 0.4101563 0.6054688 0.4101563 0.6040039 0.4155274 0.6040039 0.4155274 0.6201172 0.4155274 0.6201172 0.4272461 0.6362305 0.4165039 0.6362305 0.4277344 0.6201172 0.4272461 0.4414063 0.4101563 0.4423828 0.4042969 0.6044922 0.4042969 0.6201172 0.4155274 0.6040039 0.4155274 0.6054688 0.4101563 0.6210938 0.4042969 0.6206055 0.4101563 0.6054688 0.4101563 0.6201172 0.4155274 0.6206055 0.4101563 0.6352539 0.4106445 0.7978516 0.4204102 0.7973633 0.4316406 0.6362305 0.4277344 0.6352539 0.4106445 0.7998047 0.4145508 0.7978516 0.4204102 0.7978516 0.4204102 0.8134766 0.4208984 0.8125 0.4326172 0.7998047 0.4145508 0.8149414 0.4150391 0.8134766 0.4208984 0.8139649 0.4091797 0.8149414 0.4150391 0.7998047 0.4145508 0.6352539 0.4106445 0.6367188 0.4047852 0.7983399 0.4086914 0.8115234 0.04345703 0.828125 0.04394531 0.8139649 0.4091797 0.6210938 0.4042969 0.6367188 0.4047852 0.6352539 0.4106445 0.6367188 0.4047852 0.6416016 0.03955078 0.8115234 0.04345703 0.8134766 0.03808593 0.8295899 0.03808593 0.828125 0.04394531 0.640625 0.0336914 0.8134766 0.03808593 0.8115234 0.04345703 0.6416016 0.03955078 0.6367188 0.4047852 0.6210938 0.4042969 0.6079102 0.0390625 0.6245117 0.0390625 0.6210938 0.4042969 0.6245117 0.0390625 0.625 0.03320312 0.640625 0.0336914 0.8286133 0.03222656 0.8295899 0.03808593 0.8134766 0.03808593 0.8125 0.02050781 0.8286133 0.02099609 0.8286133 0.03222656 0.6420899 0.01611328 0.8125 0.02050781 0.8120117 0.03222656 0.625 0.02734375 0.6254883 0.015625 0.6420899 0.01611328 0.625 0.02734375 0.6420899 0.02783203 0.640625 0.0336914 0.625 0.02734375 0.6083984 0.02734375 0.6088867 0.015625 0.6098633 0.03320312 0.6083984 0.02734375 0.625 0.02734375 0.6098633 0.03320312 0.625 0.03320312 0.6245117 0.0390625 0.4423828 0.4042969 0.4389649 0.0390625 0.6079102 0.0390625 0.4372559 0.03320312 0.4384766 0.02734375 0.6083984 0.02734375 0.6079102 0.0390625 0.4389649 0.0390625 0.4372559 0.03320312 0.4372559 0.03320312 0.4389649 0.0390625 0.4223633 0.0390625 0.40625 0.03320312 0.4050293 0.0390625 0.2352294 0.04345703 0.640625 0.0336914 0.6420899 0.02783203 0.8120117 0.03222656 0.2023925 0.03857421 0.2012939 0.04443359 0.03161621 0.05322265 0.05462646 0.4179688 0.2161865 0.409668 0.2176513 0.4150391 0.4437256 0.920044 0.4516602 0.920044 0.4516602 0.9821472 0.4516602 0.920044 0.4604492 0.920044 0.4604492 0.9821472 0.4604492 0.920044 0.4694824 0.920044 0.4694824 0.9821472 0.4694824 0.920044 0.6088867 0.920044 0.6088867 0.9821472 0.6088867 0.9821472 0.6088867 0.920044 0.6181641 0.920044 0.6181641 0.9821472 0.6181641 0.920044 0.6264649 0.920044 0.6345215 0.920044 0.6425781 0.920044 0.6425781 0.9821472 0.6420899 0.01611328 0.4113771 0.4101561 0.4187011 0.4125978 0.442627 0.4155274 0.6040039 0.4155274 0.563654 0.4272461 0.2167968 0.4213867 0.177055 0.4346924 0.136825 0.4367676 0.4694824 0.920044 0.4694824 0.9821472 0.6181641 0.920044 0.05636596 0.440918 0.05636596 0.440918 0.04083251 0.4418945 0.136825 0.4367676 0.05636596 0.440918 0.05636596 0.440918 0.2172851 0.4326172 0.2329101 0.4321289 0.2329101 0.4321289 0.2491455 0.4316406 0.2491455 0.4316406 0.2329101 0.4321289 0.03089904 0.03027343 0.01451873 0.03027343 0.01451873 0.03027343 0.03089904 0.03027343 0.2009277 0.02099609 0.2009277 0.02099609 0.2009277 0.02099609 0.2009277 0.02099609 0.2175292 0.02099609 0.234375 0.02050781 0.2175292 0.02099609 0.2175292 0.02099609 0.234375 0.02050781 0.4047852 0.01611328 0.4047852 0.01611328 0.4047852 0.01611328 0.4047852 0.01611328 0.421875 0.015625 0.4384766 0.015625 0.421875 0.015625 0.421875 0.015625 0.4384766 0.015625 0.4384766 0.015625 0.6088867 0.015625 0.4106445 0.4277344 0.4106445 0.4277344 0.2491455 0.4316406 0.4106445 0.4277344 0.4267578 0.4272461 0.4267578 0.4272461 0.442627 0.4272461 0.442627 0.4272461 0.4267578 0.4272461 0.5233042 0.4272461 0.442627 0.4272461 0.442627 0.4272461 0.6040039 0.4272461 0.6201172 0.4272461 0.6201172 0.4272461 0.6362305 0.4277344 0.6362305 0.4277344 0.6201172 0.4272461 0.7973633 0.4316406 0.6362305 0.4277344 0.6362305 0.4277344 0.7973633 0.4316406 0.8125 0.4326172 0.8125 0.4326172 0.8125 0.02050781 0.8125 0.02050781 0.8286133 0.02099609 0.6420899 0.01611328 0.6420899 0.01611328 0.8125 0.02050781 0.6420899 0.01611328 0.6254883 0.015625 0.6254883 0.015625 0.6088867 0.015625 0.6088867 0.015625 0.6254883 0.015625 0.4437256 0.9821472 0.435791 0.9821472 0.435791 0.9821472 0.4437256 0.920044 0.4516602 0.920044 0.4516602 0.920044 0.4516602 0.920044 0.4516602 0.920044 0.4604492 0.920044 0.4604492 0.9821472 0.4516602 0.9821472 0.4516602 0.9821472 0.4604492 0.920044 0.4604492 0.920044 0.4694824 0.920044 0.4604492 0.9821472 0.4694824 0.9821472 0.4694824 0.9821472 0.4694824 0.920044 0.6088867 0.920044 0.6088867 0.920044 0.6088867 0.9821472 0.4694824 0.9821472 0.4694824 0.9821472 0.6181641 0.920044 0.6088867 0.920044 0.6088867 0.920044 0.6181641 0.9821472 0.6181641 0.9821472 0.6088867 0.9821472 0.6181641 0.920044 0.6264649 0.920044 0.6264649 0.920044 0.6264649 0.9821472 0.6264649 0.9821472 0.6181641 0.9821472 0.6345215 0.9821472 0.6264649 0.9821472 0.6264649 0.9821472 0.6345215 0.920044 0.6425781 0.920044 0.6425781 0.920044 0.6420899 0.01611328 0.6420899 0.01611328 0.4113771 0.4101561 0.4187011 0.4125978 0.6254883 0.015625 0.6254883 0.015625 0.6040039 0.4272461 0.6040039 0.4272461 0.563654 0.4272461 0.2172851 0.4326172 0.2172851 0.4326172 0.177055 0.4346924 0.6181641 0.9821472 0.4694824 0.920044 0.4694824 0.920044 0.4694824 0.9821472 0.4694824 0.9821472 0.6181641 0.920044 0.01451873 0.03027343 0.03089904 0.03027343 0.03089904 0.03027343 0.03089904 0.03027343 0.2009277 0.02099609 0.2009277 0.02099609 0.2009277 0.02099609 0.2009277 0.02099609 0.2175292 0.02099609 0.2175292 0.02099609 0.234375 0.02050781 0.234375 0.02050781 0.234375 0.02050781 0.4047852 0.01611328 0.4047852 0.01611328 0.4047852 0.01611328 0.4047852 0.01611328 0.421875 0.015625 0.421875 0.015625 0.4384766 0.015625 0.4384766 0.015625 0.6088867 0.015625 0.6088867 0.015625 0.4384766 0.015625 0.8125 0.02050781 0.8125 0.02050781 0.8286133 0.02099609 0.8125 0.02050781 0.8125 0.02050781 0.6420899 0.01611328 0.6254883 0.015625 0.6420899 0.01611328 0.6420899 0.01611328 0.6088867 0.015625 0.6088867 0.015625 0.6254883 0.015625 0.05636596 0.440918 0.05636596 0.440918 0.04083251 0.4418945 0.136825 0.4367676 0.136825 0.4367676 0.05636596 0.440918 0.2329101 0.4321289 0.2172851 0.4326172 0.2172851 0.4326172 0.2491455 0.4316406 0.2491455 0.4316406 0.2329101 0.4321289 0.2491455 0.4316406 0.2491455 0.4316406 0.4106445 0.4277344 0.4267578 0.4272461 0.4106445 0.4277344 0.4106445 0.4277344 0.442627 0.4272461 0.442627 0.4272461 0.4267578 0.4272461 0.5233042 0.4272461 0.5233042 0.4272461 0.442627 0.4272461 0.6201172 0.4272461 0.6040039 0.4272461 0.6040039 0.4272461 0.6362305 0.4277344 0.6362305 0.4277344 0.6201172 0.4272461 0.7973633 0.4316406 0.6362305 0.4277344 0.6362305 0.4277344 0.8125 0.4326172 0.7973633 0.4316406 0.7973633 0.4316406 0.4437256 0.9821472 0.4437256 0.9821472 0.4516602 0.9821472 0.4437256 0.920044 0.4437256 0.920044 0.435791 0.920044 0.4604492 0.920044 0.4604492 0.920044 0.4516602 0.920044 0.4604492 0.9821472 0.4516602 0.9821472 0.4516602 0.9821472 0.4604492 0.920044 0.4604492 0.920044 0.4694824 0.920044 0.4694824 0.9821472 0.4604492 0.9821472 0.4604492 0.9821472 0.6088867 0.920044 0.6088867 0.920044 0.4694824 0.920044 0.6088867 0.9821472 0.4694824 0.9821472 0.4694824 0.9821472 0.6088867 0.920044 0.6181641 0.920044 0.6181641 0.920044 0.6181641 0.9821472 0.6181641 0.9821472 0.6088867 0.9821472 0.6181641 0.920044 0.6264649 0.920044 0.6264649 0.920044 0.6181641 0.9821472 0.6181641 0.9821472 0.6264649 0.9821472 0.6345215 0.9821472 0.6345215 0.9821472 0.6425781 0.9821472 0.6345215 0.920044 0.6345215 0.920044 0.6264649 0.920044 0.6420899 0.01611328 0.4113771 0.4101561 0.4113771 0.4101561 0.6254883 0.015625 0.6254883 0.015625 0.4187011 0.4125978 0.6040039 0.4272461 0.563654 0.4272461 0.563654 0.4272461 0.2172851 0.4326172 0.177055 0.4346924 0.177055 0.4346924 0.4694824 0.920044 0.4694824 0.920044 0.6181641 0.9821472 0.4694824 0.9821472 0.6181641 0.920044 0.6181641 0.920044 0.6264649 0.9821472 0.6264649 0.920044 0.6345215 0.920044 0.6425781 0.9821472 0.6425781 0.9821472 0.6345215 0.9821472 0.6264649 0.920044 0.6264649 0.920044 0.6345215 0.920044 0.6264649 0.9821472 0.6345215 0.9821472 0.6345215 0.9821472 0.6425781 0.920044 0.6345215 0.920044 0.6345215 0.920044 0.435791 0.920044 0.4437256 0.920044 0.4437256 0.9821472 0.4516602 0.9821472 0.4516602 0.9821472 0.4437256 0.9821472 0.435791 0.920044 0.435791 0.920044 0.4437256 0.920044 0.435791 0.9821472 0.4437256 0.9821472 0.4437256 0.9821472 0.4516602 0.920044 0.4437256 0.920044 0.4437256 0.920044</float_array>
          <technique_common>
            <accessor source="#Mesh_001-mesh-map-1-array" count="1158" stride="2">
              <param name="S" type="float"/>
              <param name="T" type="float"/>
            </accessor>
          </technique_common>
        </source>
        <source id="Mesh_001-mesh-colors-Attribute" name="Attribute">
          <float_array id="Mesh_001-mesh-colors-Attribute-array" count="4632">1 1 1 1 1 1 1 1 1 1 1 1 1 1 1 1 1 1 1 1 1 1 1 1 1 1 1 1 1 1 1 1 1 1 1 1 1 1 1 1 1 1 1 1 1 1 1 1 1 1 1 1 1 1 1 1 1 1 1 1 1 1 1 1 1 1 1 1 1 1 1 1 1 1 1 1 1 1 1 1 1 1 1 1 1 1 1 1 1 1 1 1 1 1 1 1 1 1 1 1 1 1 1 1 1 1 1 1 1 1 1 1 1 1 1 1 1 1 1 1 1 1 1 1 1 1 1 1 1 1 1 1 1 1 1 1 1 1 1 1 1 1 1 1 1 1 1 1 1 1 1 1 1 1 1 1 1 1 1 1 1 1 1 1 1 1 1 1 1 1 1 1 1 1 1 1 1 1 1 1 1 1 1 1 1 1 1 1 1 1 1 1 1 1 1 1 1 1 1 1 1 1 1 1 1 1 1 1 1 1 1 1 1 1 1 1 1 1 1 1 1 1 1 1 1 1 1 1 1 1 1 1 1 1 1 1 1 1 1 1 1 1 1 1 1 1 1 1 1 1 1 1 1 1 1 1 1 1 1 1 1 1 1 1 1 1 1 1 1 1 1 1 1 1 1 1 1 1 1 1 1 1 1 1 1 1 1 1 1 1 1 1 1 1 1 1 1 1 1 1 1 1 1 1 1 1 1 1 1 1 1 1 1 1 1 1 1 1 1 1 1 1 1 1 1 1 1 1 1 1 1 1 1 1 1 1 1 1 1 1 1 1 1 1 1 1 1 1 1 1 1 1 1 1 1 1 1 1 1 1 1 1 1 1 1 1 1 1 1 1 1 1 1 1 1 1 1 1 1 1 1 1 1 1 1 1 1 1 1 1 1 1 1 1 1 1 1 1 1 1 1 1 1 1 1 1 1 1 1 1 1 1 1 1 1 1 1 1 1 1 1 1 1 1 1 1 1 1 1 1 1 1 1 1 1 1 1 1 1 1 1 1 1 1 1 1 1 1 1 1 1 1 1 1 1 1 1 1 1 1 1 1 1 1 1 1 1 1 1 1 1 1 1 1 1 1 1 1 1 1 1 1 1 1 1 1 1 1 1 1 1 1 1 1 1 1 1 1 1 1 1 1 1 1 1 1 1 1 1 1 1 1 1 1 1 1 1 1 1 1 1 1 1 1 1 1 1 1 1 1 1 1 1 1 1 1 1 1 1 1 1 1 1 1 1 1 1 1 1 1 1 1 1 1 1 1 1 1 1 1 1 1 1 1 1 1 1 1 1 1 1 1 1 1 1 1 1 1 1 1 1 1 1 1 1 1 1 1 1 1 1 1 1 1 1 1 1 1 1 1 1 1 1 1 1 1 1 1 1 1 1 1 1 1 1 1 1 1 1 1 1 1 1 1 1 1 1 1 1 1 1 1 1 1 1 1 1 1 1 1 1 1 1 1 1 1 1 1 1 1 1 1 1 1 1 1 1 1 1 1 1 1 1 1 1 1 1 1 1 1 1 1 1 1 1 1 1 1 1 1 1 1 1 1 1 1 1 1 1 1 1 1 1 1 1 1 1 1 1 1 1 1 1 1 1 1 1 1 1 1 1 1 1 1 1 1 1 1 1 1 1 1 1 1 1 1 1 1 1 1 1 1 1 1 1 1 1 1 1 1 1 1 1 1 1 1 1 1 1 1 1 1 1 1 1 1 1 1 1 1 1 1 1 1 1 1 1 1 1 1 1 1 1 1 1 1 1 1 1 1 1 1 1 1 1 1 1 1 1 1 1 1 1 1 1 1 1 1 1 1 1 1 1 1 1 1 1 1 1 1 1 1 1 1 1 1 1 1 1 1 1 1 1 1 1 1 1 1 1 1 1 1 1 1 1 1 1 1 1 1 1 1 1 1 1 1 1 1 1 1 1 1 1 1 1 1 1 1 1 1 1 1 1 1 1 1 1 1 1 1 1 1 1 1 1 1 1 1 1 1 1 1 1 1 1 1 1 1 1 1 1 1 1 1 1 1 1 1 1 1 1 1 1 1 1 1 1 1 1 1 1 1 1 1 1 1 1 1 1 1 1 1 1 1 1 1 1 1 1 1 1 1 1 1 1 1 1 1 1 1 1 1 1 1 1 1 1 1 1 1 1 1 1 1 1 1 1 1 1 1 1 1 1 1 1 1 1 1 1 1 1 1 1 1 1 1 1 1 1 1 1 1 1 1 1 1 1 1 1 1 1 1 1 1 1 1 1 1 1 1 1 1 1 1 1 1 1 1 1 1 1 1 1 1 1 1 1 1 1 1 1 1 1 1 1 1 1 1 1 1 1 1 1 1 1 1 1 1 1 1 1 1 1 1 1 1 1 1 1 1 1 1 1 1 1 1 1 1 1 1 1 1 1 1 1 1 1 1 1 1 1 1 1 1 1 1 1 1 1 1 1 1 1 1 1 1 1 1 1 1 1 1 1 1 1 1 1 1 1 1 1 1 1 1 1 1 1 1 1 1 1 1 1 1 1 1 1 1 1 1 1 1 1 1 1 1 1 1 1 1 1 1 1 1 1 1 1 1 1 1 1 1 1 1 1 1 1 1 1 1 1 1 1 1 1 1 1 1 1 1 1 1 1 1 1 1 1 1 1 1 1 1 1 1 1 1 1 1 1 1 1 1 1 1 1 1 1 1 1 1 1 1 1 1 1 1 1 1 1 1 1 1 1 1 1 1 1 1 1 1 1 1 1 1 1 1 1 1 1 1 1 1 1 1 1 1 1 1 1 1 1 1 1 1 1 1 1 1 1 1 1 1 1 1 1 1 1 1 1 1 1 1 1 1 1 1 1 1 1 1 1 1 1 1 1 1 1 1 1 1 1 1 1 1 1 1 1 1 1 1 1 1 1 1 1 1 1 1 1 1 1 1 1 1 1 1 1 1 1 1 1 1 1 1 1 1 1 1 1 1 1 1 1 1 1 1 1 1 1 1 1 1 1 1 1 1 1 1 1 1 1 1 1 1 1 1 1 1 1 1 1 1 1 1 1 1 1 1 1 1 1 1 1 1 1 1 1 1 1 1 1 1 1 1 1 1 1 1 1 1 1 1 1 1 1 1 1 1 1 1 1 1 1 1 1 1 1 1 1 1 1 1 1 1 1 1 1 1 1 1 1 1 1 1 1 1 1 1 1 1 1 1 1 1 1 1 1 1 1 1 1 1 1 1 1 1 1 1 1 1 1 1 1 1 1 1 1 1 1 1 1 1 1 1 1 1 1 1 1 1 1 1 1 1 1 1 1 1 1 1 1 1 1 1 1 1 1 1 1 1 1 1 1 1 1 1 1 1 1 1 1 1 1 1 1 1 1 1 1 1 1 1 1 1 1 1 1 1 1 1 1 1 1 1 1 1 1 1 1 1 1 1 1 1 1 1 1 1 1 1 1 1 1 1 1 1 1 1 1 1 1 1 1 1 1 1 1 1 1 1 1 1 1 1 1 1 1 1 1 1 1 1 1 1 1 1 1 1 1 1 1 1 1 1 1 1 1 1 1 1 1 1 1 1 1 1 1 1 1 1 1 1 1 1 1 1 1 1 1 1 1 1 1 1 1 1 1 1 1 1 1 1 1 1 1 1 1 1 1 1 1 1 1 1 1 1 1 1 1 1 1 1 1 1 1 1 1 1 1 1 1 1 1 1 1 1 1 1 1 1 1 1 1 1 1 1 1 1 1 1 1 1 1 1 1 1 1 1 1 1 1 1 1 1 1 1 1 1 1 1 1 1 1 1 1 1 1 1 1 1 1 1 1 1 1 1 1 1 1 1 1 1 1 1 1 1 1 1 1 1 1 1 1 1 1 1 1 1 1 1 1 1 1 1 1 1 1 1 1 1 1 1 1 1 1 1 1 1 1 1 1 1 1 1 1 1 1 1 1 1 1 1 1 1 1 1 1 1 1 1 1 1 1 1 1 1 1 1 1 1 1 1 1 1 1 1 1 1 1 1 1 1 1 1 1 1 1 1 1 1 1 1 1 1 1 1 1 1 1 1 1 1 1 1 1 1 1 1 1 1 1 1 1 1 1 1 1 1 1 1 1 1 1 1 1 1 1 1 1 1 1 1 1 1 1 1 1 1 1 1 1 1 1 1 1 1 1 1 1 1 1 1 1 1 1 1 1 1 1 1 1 1 1 1 1 1 1 1 1 1 1 1 1 1 1 1 1 1 1 1 1 1 1 1 1 1 1 1 1 1 1 1 1 1 1 1 1 1 1 1 1 1 1 1 1 1 1 1 1 1 1 1 1 1 1 1 1 1 1 1 1 1 1 1 1 1 1 1 1 1 1 1 1 1 1 1 1 1 1 1 1 1 1 1 1 1 1 1 1 1 1 1 1 1 1 1 1 1 1 1 1 1 1 1 1 1 1 1 1 1 1 1 1 1 1 1 1 1 1 1 1 1 1 1 1 1 1 1 1 1 1 1 1 1 1 1 1 1 1 1 1 1 1 1 1 1 1 1 1 1 1 1 1 1 1 1 1 1 1 1 1 1 1 1 1 1 1 1 1 1 1 1 1 1 1 1 1 1 1 1 1 1 1 1 1 1 1 1 1 1 1 1 1 1 1 1 1 1 1 1 1 1 1 1 1 1 1 1 1 1 1 1 1 1 1 1 1 1 1 1 1 1 1 1 1 1 1 1 1 1 1 1 1 1 1 1 1 1 1 1 1 1 1 1 1 1 1 1 1 1 1 1 1 1 1 1 1 1 1 1 1 1 1 1 1 1 1 1 1 1 1 1 1 1 1 1 1 1 1 1 1 1 1 1 1 1 1 1 1 1 1 1 1 1 1 1 1 1 1 1 1 1 1 1 1 1 1 1 1 1 1 1 1 1 1 1 1 1 1 1 1 1 1 1 1 1 1 1 1 1 1 1 1 1 1 1 1 1 1 1 1 1 1 1 1 1 1 1 1 1 1 1 1 1 1 1 1 1 1 1 1 1 1 1 1 1 1 1 1 1 1 1 1 1 1 1 1 1 1 1 1 1 1 1 1 1 1 1 1 1 1 1 1 1 1 1 1 1 1 1 1 1 1 1 1 1 1 1 1 1 1 1 1 1 1 1 1 1 1 1 1 1 1 1 1 1 1 1 1 1 1 1 1 1 1 1 1 1 1 1 1 1 1 1 1 1 1 1 1 1 1 1 1 1 1 1 1 1 1 1 1 1 1 1 1 1 1 1 1 1 1 1 1 1 1 1 1 1 1 1 1 1 1 1 1 1 1 1 1 1 1 1 1 1 1 1 1 1 1 1 1 1 1 1 1 1 1 1 1 1 1 1 1 1 1 1 1 1 1 1 1 1 1 1 1 1 1 1 1 1 1 1 1 1 1 1 1 1 1 1 1 1 1 1 1 1 1 1 1 1 1 1 1 1 1 1 1 1 1 1 1 1 1 1 1 1 1 1 1 1 1 1 1 1 1 1 1 1 1 1 1 1 1 1 1 1 1 1 1 1 1 1 1 1 1 1 1 1 1 1 1 1 1 1 1 1 1 1 1 1 1 1 1 1 1 1 1 1 1 1 1 1 1 1 1 1 1 1 1 1 1 1 1 1 1 1 1 1 1 1 1 1 1 1 1 1 1 1 1 1 1 1 1 1 1 1 1 1 1 1 1 1 1 1 1 1 1 1 1 1 1 1 1 1 1 1 1 1 1 1 1 1 1 1 1 1 1 1 1 1 1 1 1 1 1 1 1 1 1 1 1 1 1 1 1 1 1 1 1 1 1 1 1 1 1 1 1 1 1 1 1 1 1 1 1 1 1 1 1 1 1 1 1 1 1 1 1 1 1 1 1 1 1 1 1 1 1 1 1 1 1 1 1 1 1 1 1 1 1 1 1 1 1 1 1 1 1 1 1 1 1 1 1 1 1 1 1 1 1 1 1 1 1 1 1 1 1 1 1 1 1 1 1 1 1 1 1 1 1 1 1 1 1 1 1 1 1 1 1 1 1 1 1 1 1 1 1 1 1 1 1 1 1 1 1 1 1 1 1 1 1 1 1 1 1 1 1 1 1 1 1 1 1 1 1 1 1 1 1 1 1 1 1 1 1 1 1 1 1 1 1 1 1 1 1 1 1 1 1 1 1 1 1 1 1 1 1 1 1 1 1 1 1 1 1 1 1 1 1 1 1 1 1 1 1 1 1 1 1 1 1 1 1 1 1 1 1 1 1 1 1 1 1 1 1 1 1 1 1 1 1 1 1 1 1 1 1 1 1 1 1 1 1 1 1 1 1 1 1 1 1 1 1 1 1 1 1 1 1 1 1 1 1 1 1 1 1 1 1 1 1 1 1 1 1 1 1 1 1 1 1 1 1 1 1 1 1 1 1 1 1 1 1 1 1 1 1 1 1 1 1 1 1 1 1 1 1 1 1 1 1 1 1 1 1 1 1 1 1 1 1 1 1 1 1 1 1 1 1 1 1 1 1 1 1 1 1 1 1 1 1 1 1 1 1 1 1 1 1 1 1 1 1 1 1 1 1 1 1 1 1 1 1 1 1 1 1 1 1 1 1 1 1 1 1 1 1 1 1 1 1 1 1 1 1 1 1 1 1 1 1 1 1 1 1 1 1 1 1 1 1 1 1 1 1 1 1 1 1 1 1 1 1 1 1 1 1 1 1 1 1 1 1 1 1 1 1 1 1 1 1 1 1 1 1 1 1 1 1 1 1 1 1 1 1 1 1 1 1 1 1 1 1 1 1 1 1 1 1 1 1 1 1 1 1 1 1 1 1 1 1 1 1 1 1 1 1 1 1 1 1 1 1 1 1 1 1 1 1 1 1 1 1 1 1 1 1 1 1 1 1 1 1 1 1 1 1 1 1 1 1 1 1 1 1 1 1 1 1 1 1 1 1 1 1 1 1 1 1 1 1 1 1 1 1 1 1 1 1 1 1 1 1 1 1 1 1 1 1 1 1 1 1 1 1 1 1 1 1 1 1 1 1 1 1 1 1 1 1 1 1 1 1 1 1 1 1 1 1 1 1 1 1 1 1 1 1 1 1 1 1 1 1 1 1 1 1 1 1 1 1 1 1 1 1 1 1 1 1 1 1 1 1 1 1 1 1 1 1 1 1 1 1 1 1 1 1 1 1 1 1 1 1 1 1 1 1 1 1 1 1 1 1 1 1 1 1 1 1 1 1 1 1 1 1 1 1 1 1 1 1 1 1 1 1 1 1 1 1 1 1 1 1 1 1 1 1 1 1 1 1 1 1 1 1 1 1 1 1 1 1 1 1 1 1 1 1 1 1 1 1 1 1 1 1 1 1 1 1 1 1 1 1 1 1 1 1 1 1 1 1 1 1 1 1 1 1 1 1 1 1 1 1 1 1 1 1 1 1 1 1 1 1 1 1 1 1 1 1 1 1 1 1 1 1 1 1 1 1 1 1 1 1 1 1 1 1 1 1 1 1 1 1 1 1 1 1 1 1 1 1 1 1 1 1 1 1 1 1 1 1 1 1 1 1 1 1 1 1 1 1 1 1 1 1 1 1 1 1 1 1 1 1 1 1 1 1 1 1 1 1 1 1 1 1 1 1 1 1 1 1 1 1 1 1 1 1 1 1 1 1 1 1 1 1 1 1 1 1 1 1 1 1 1 1 1 1 1 1 1 1 1 1 1 1 1 1 1 1 1 1 1 1 1 1 1 1 1 1 1 1 1 1 1 1 1 1 1 1 1 1 1 1 1 1 1 1 1 1 1 1 1 1 1 1 1 1 1 1 1 1 1 1 1 1 1 1 1 1 1 1 1 1 1 1 1 1 1 1 1 1 1 1 1 1 1 1 1 1 1 1 1 1 1 1 1 1 1 1 1 1 1 1 1 1 1 1 1 1 1 1 1 1 1 1 1 1 1 1 1 1 1 1 1 1 1 1 1 1 1 1 1 1 1 1 1 1 1 1 1 1 1 1 1 1 1 1 1 1 1 1 1 1 1 1 1 1 1 1 1 1 1 1 1 1 1 1 1 1 1 1 1 1 1 1 1 1 1 1 1 1 1 1 1 1 1 1 1 1 1 1 1 1 1 1 1 1 1 1 1 1 1 1 1 1 1 1 1 1 1 1 1 1 1 1 1 1 1 1 1 1 1 1 1 1 1 1 1 1 1 1 1 1 1 1 1 1 1 1 1 1 1 1 1 1 1 1 1 1 1 1 1 1 1 1 1 1 1 1 1 1 1 1 1 1 1 1 1 1 1 1 1 1 1 1 1 1 1 1 1 1 1 1 1 1 1 1 1 1 1 1 1 1 1 1 1 1 1 1 1 1 1 1 1 1 1 1 1 1 1 1 1 1 1 1 1 1 1 1 1 1 1 1 1 1 1 1 1 1 1 1 1 1 1 1 1 1 1 1 1 1 1 1 1 1 1 1 1 1 1 1 1 1 1 1 1 1 1 1 1 1 1 1 1 1 1 1 1 1 1 1 1 1 1 1 1 1 1 1 1 1 1 1 1 1 1 1 1 1 1 1 1 1 1 1 1 1 1 1 1 1 1 1 1 1 1 1 1 1 1 1 1 1 1 1 1 1 1 1 1 1 1 1 1 1 1 1 1 1 1 1 1 1 1 1 1 1 1 1 1 1 1 1 1 1 1 1 1 1 1 1 1 1 1 1 1 1 1 1 1 1 1 1 1 1 1 1 1 1 1 1 1 1 1 1 1 1 1 1 1 1 1 1 1 1 1 1 1 1 1 1 1 1 1 1 1 1 1 1 1 1 1 1 1 1 1 1 1 1 1 1 1 1 1 1 1 1 1 1 1 1 1 1 1 1 1 1 1 1 1 1 1 1 1 1 1 1 1 1 1 1 1 1 1 1 1 1 1 1 1 1 1 1 1 1 1 1 1 1 1 1 1 1 1 1 1 1 1 1 1 1 1 1 1 1 1 1 1 1 1 1 1 1 1 1 1 1 1 1 1 1 1 1 1 1 1 1 1 1 1 1 1 1 1 1 1 1 1 1 1 1 1 1 1 1 1 1 1 1 1 1 1 1 1 1 1 1 1 1 1 1 1 1 1 1 1 1 1 1 1 1 1 1 1 1 1 1 1 1 1 1 1 1 1 1 1 1 1 1 1 1 1 1 1 1 1 1 1 1 1 1 1 1 1 1 1 1 1 1 1 1 1 1 1 1 1 1 1 1 1 1 1 1 1 1 1 1 1 1 1 1 1 1 1 1 1 1 1 1 1 1 1 1 1 1 1 1 1 1 1 1 1 1 1 1 1 1 1 1 1 1 1 1 1 1 1 1 1 1 1 1 1 1 1 1 1 1 1 1 1 1 1 1 1 1 1 1 1 1 1 1 1 1 1 1 1 1 1 1 1 1 1 1 1 1 1 1 1 1 1 1 1 1 1 1 1 1 1 1 1 1 1 1 1 1 1 1 1 1 1 1 1 1 1 1 1 1 1 1 1 1 1 1 1 1 1 1 1 1 1 1 1 1 1 1 1 1 1 1 1 1 1 1 1 1 1 1 1 1 1 1 1 1 1 1 1 1 1 1 1 1 1 1 1 1 1 1 1 1 1 1 1 1 1 1 1 1 1 1 1 1 1 1 1 1 1 1 1 1 1 1 1 1 1 1 1 1 1 1 1 1 1 1 1 1 1 1 1 1 1 1 1 1 1 1 1 1 1 1 1 1 1 1 1 1 1 1 1 1 1 1 1 1 1 1 1 1 1 1 1 1 1 1 1 1 1 1 1 1 1 1 1 1 1 1 1 1 1 1 1 1 1 1 1 1 1 1 1 1 1 1 1 1 1 1 1 1 1 1 1 1 1 1 1 1 1 1 1 1 1 1 1 1 1 1 1 1 1 1 1 1 1 1 1 1 1 1 1 1 1 1 1 1 1 1 1 1 1 1 1 1 1 1 1 1 1 1 1 1 1 1 1 1 1 1 1 1 1 1 1 1 1 1 1 1 1 1 1 1 1 1 1 1 1 1 1 1 1 1 1 1 1 1 1 1 1 1 1 1 1 1 1 1 1 1 1 1 1 1 1 1 1 1 1 1 1 1 1 1 1 1 1 1 1 1 1 1 1 1 1 1 1 1 1 1 1 1 1 1 1 1 1 1 1 1 1 1 1 1 1 1 1 1 1 1 1 1 1 1 1 1 1 1 1 1 1 1 1 1 1 1 1 1 1 1 1 1 1 1 1 1 1 1 1 1 1 1 1 1 1 1 1 1 1 1 1 1 1 1 1 1 1 1 1 1 1 1 1 1 1 1 1 1 1 1 1 1 1 1 1 1 1 1 1 1 1 1 1 1 1 1 1 1 1 1 1 1 1 1 1 1 1 1 1 1 1 1 1 1 1 1 1 1 1 1 1 1 1 1 1 1 1 1 1 1 1 1 1 1 1 1 1 1 1 1 1 1 1 1 1 1 1</float_array>
          <technique_common>
            <accessor source="#Mesh_001-mesh-colors-Attribute-array" count="1158" stride="4">
              <param name="R" type="float"/>
              <param name="G" type="float"/>
              <param name="B" type="float"/>
              <param name="A" type="float"/>
            </accessor>
          </technique_common>
        </source>
        <vertices id="Mesh_001-mesh-vertices">
          <input semantic="POSITION" source="#Mesh_001-mesh-positions"/>
        </vertices>
        <triangles material="Grater_Clean-material" count="386">
          <input semantic="VERTEX" source="#Mesh_001-mesh-vertices" offset="0"/>
          <input semantic="NORMAL" source="#Mesh_001-mesh-normals" offset="1"/>
          <input semantic="TEXCOORD" source="#Mesh_001-mesh-map-0" offset="2" set="0"/>
          <input semantic="TEXCOORD" source="#Mesh_001-mesh-map-1" offset="2" set="1"/>
          <input semantic="COLOR" source="#Mesh_001-mesh-colors-Attribute" offset="3" set="0"/>
          <p>3 0 0 0 1 1 1 1 2 2 2 2 8 3 3 3 2 2 4 4 4 4 5 5 0 5 6 6 3 0 7 7 114 6 8 8 5 7 9 9 7 8 10 10 6 9 11 11 9 10 12 12 8 3 13 13 4 4 14 14 3 0 15 15 10 11 16 16 5 7 17 17 10 11 18 18 11 12 19 19 5 7 20 20 20 13 21 21 7 8 22 22 11 12 23 23 16 14 24 24 9 10 25 25 14 15 26 26 28 16 27 27 13 17 28 28 16 14 29 29 18 18 30 30 14 15 31 31 80 19 32 32 31 20 33 33 10 11 34 34 15 21 35 35 19 22 36 36 18 18 37 37 80 19 38 38 48 23 39 39 11 12 40 40 17 24 41 41 22 25 42 42 19 22 43 43 85 26 44 44 24 27 45 45 22 25 46 46 23 28 47 47 25 29 48 48 21 30 49 49 24 27 50 50 23 28 51 51 26 31 52 52 24 27 53 53 26 31 54 54 25 29 55 55 24 27 56 56 25 29 57 57 30 32 58 58 28 16 59 59 31 20 60 60 28 16 61 61 30 32 62 62 33 33 63 63 30 32 64 64 29 34 65 65 32 35 66 66 31 20 67 67 30 32 68 68 26 31 69 69 33 33 70 70 29 34 71 71 35 36 72 72 26 31 73 73 27 37 74 74 37 38 75 75 35 36 76 76 36 39 77 77 38 40 78 78 34 41 79 79 37 38 80 80 36 39 81 81 39 42 82 82 37 38 83 83 39 42 84 84 38 40 85 85 37 38 86 86 43 43 87 87 39 42 88 88 40 44 89 89 94 45 90 90 39 42 91 91 42 46 92 92 58 47 93 93 38 40 94 94 44 48 95 95 47 49 96 96 43 43 97 97 45 50 98 98 49 51 99 99 32 35 100 100 41 52 101 101 48 23 102 102 31 20 103 103 46 53 104 104 53 54 105 105 46 53 106 106 49 51 107 107 53 54 108 108 20 13 109 109 48 23 110 110 51 55 111 111 20 13 112 112 50 56 113 113 50 56 114 114 52 57 115 115 51 55 116 116 61 58 117 117 52 57 118 118 54 59 119 119 54 59 120 120 53 54 121 121 56 60 122 122 57 61 123 123 53 54 124 124 49 51 125 125 57 61 126 126 41 52 127 127 58 47 128 128 60 62 129 129 57 61 130 130 59 63 131 131 95 64 132 132 57 61 133 133 58 47 134 134 60 62 135 135 54 59 136 136 56 60 137 137 55 65 138 138 61 58 139 139 112 66 140 140 60 62 141 141 62 67 142 142 61 58 143 143 62 67 144 144 64 68 145 145 63 69 146 146 68 70 147 147 64 68 148 148 65 71 149 149 60 62 150 150 69 72 151 151 67 73 152 152 65 71 153 153 67 73 154 154 70 74 155 155 71 75 156 156 67 73 157 157 69 72 158 158 65 71 159 159 72 76 160 160 68 70 161 161 73 77 162 162 66 78 163 163 68 70 164 164 72 76 165 165 73 77 166 166 68 70 167 167 73 77 168 168 1 1 169 169 74 79 170 170 75 80 171 171 2 2 172 172 73 77 173 173 9 10 174 174 75 80 175 175 76 81 176 176 72 76 177 177 76 81 178 178 75 80 179 179 78 82 180 180 9 10 181 181 76 81 182 182 71 75 183 183 72 76 184 184 70 74 185 185 77 83 186 186 78 82 187 187 76 81 188 188 79 84 189 189 14 15 190 190 78 82 191 191 83 85 192 192 78 82 193 193 81 86 194 194 81 86 195 195 71 75 196 196 82 87 197 197 93 88 198 198 71 75 199 199 69 72 200 200 82 87 201 201 83 85 202 202 81 86 203 203 19 22 204 204 79 84 205 205 84 89 206 206 86 90 207 207 19 22 208 208 84 89 209 209 88 91 210 210 84 89 211 211 87 92 212 212 91 93 213 213 88 91 214 214 87 92 215 215 91 93 216 216 83 85 217 217 90 94 218 218 91 93 219 219 45 50 220 220 89 95 221 221 92 96 222 222 91 93 223 223 90 94 224 224 92 96 225 225 82 87 226 226 93 88 227 227 59 63 228 228 93 88 229 229 69 72 230 230 94 45 231 231 47 49 232 232 92 96 233 233 93 88 234 234 94 45 235 235 92 96 236 236 94 45 237 237 58 47 238 238 44 48 239 239 38 40 240 240 32 35 241 241 33 33 242 242 83 85 243 243 84 89 244 244 79 84 245 245 25 29 246 246 16 14 247 247 18 18 248 248 13 17 249 249 10 11 250 250 8 3 251 251 211 97 252 252 98 98 253 253 210 99 254 254 99 100 255 255 101 101 256 256 98 98 257 257 100 102 258 258 103 103 259 259 101 101 260 260 102 104 261 261 105 105 262 262 103 103 263 263 105 105 264 264 106 106 265 265 107 107 266 266 107 107 267 267 108 108 268 268 109 109 269 269 205 110 270 270 110 111 271 271 204 112 272 272 96 113 273 273 113 114 274 274 97 115 275 275 61 58 276 276 113 116 277 277 112 66 278 278 62 67 279 279 63 69 280 280 113 116 281 281 5 7 282 282 114 6 283 283 3 0 284 284 5 7 285 285 6 9 286 286 115 117 287 287 110 111 288 288 114 118 289 289 115 119 290 290 0 5 291 291 173 120 292 292 1 1 293 293 174 121 294 294 0 5 295 295 114 6 296 296 6 9 297 297 175 122 298 298 176 123 299 299 12 124 300 300 175 122 301 301 7 8 302 302 22 25 303 303 160 125 304 304 161 126 305 305 161 126 306 306 23 28 307 307 22 25 308 308 23 28 309 309 163 127 310 310 27 37 311 311 35 36 312 312 163 127 313 313 164 128 314 314 164 128 315 315 36 39 316 316 35 36 317 317 36 39 318 318 166 129 319 319 40 44 320 320 43 43 321 321 166 129 322 322 167 130 323 323 43 43 324 324 168 131 325 325 45 50 326 326 51 55 327 327 177 132 328 328 12 124 329 329 51 55 330 330 179 133 331 331 178 134 332 332 55 65 333 333 179 133 334 334 52 57 335 335 181 135 336 336 55 65 337 337 112 66 338 338 63 69 339 339 182 136 340 340 183 137 341 341 66 78 342 342 182 136 343 343 64 68 344 344 185 138 345 345 66 78 346 346 74 79 347 347 74 79 348 348 173 120 349 349 185 138 350 350 86 90 351 351 160 125 352 352 85 26 353 353 88 91 354 354 169 139 355 355 86 90 356 356 88 91 357 357 171 140 358 358 170 141 359 359 45 50 360 360 171 140 361 361 89 95 362 362 214 142 363 363 96 113 364 364 210 99 365 365 215 143 366 366 99 100 367 367 211 97 368 368 99 100 369 369 190 144 370 370 100 102 371 371 191 145 372 372 98 98 373 373 101 101 374 374 100 102 375 375 192 146 376 376 102 104 377 377 101 101 378 378 193 147 379 379 191 145 380 380 192 146 381 381 104 148 382 382 102 104 383 383 195 149 384 384 103 103 385 385 105 105 386 386 106 106 387 387 194 150 388 388 196 151 389 389 107 107 390 390 195 149 391 391 105 105 392 392 196 151 393 393 108 108 394 394 106 106 395 395 109 109 396 396 197 152 397 397 107 107 398 398 208 153 399 399 109 109 400 400 204 112 401 401 209 154 402 402 111 155 403 403 205 110 404 404 96 113 405 405 181 156 406 406 112 157 407 407 202 158 408 408 97 115 409 409 113 114 410 410 63 69 411 411 202 159 412 412 113 116 413 413 6 9 414 414 203 160 415 415 115 117 416 416 203 161 417 417 110 111 418 418 115 119 419 419 111 155 420 420 174 162 421 421 114 118 422 422 136 163 423 423 161 126 424 424 160 125 425 425 121 164 426 426 162 165 427 427 161 126 428 428 162 165 429 429 123 166 430 430 163 127 431 431 123 166 432 432 164 128 433 433 163 127 434 434 124 167 435 435 165 168 436 436 164 128 437 437 165 168 438 438 126 169 439 439 166 129 440 440 126 169 441 441 167 130 442 442 166 129 443 443 128 170 444 444 167 130 445 445 127 171 446 446 169 139 447 447 136 163 448 448 160 125 449 449 137 172 450 450 170 141 451 451 138 173 452 452 139 174 453 453 170 141 454 454 171 140 455 455 168 131 456 456 139 174 457 457 171 140 458 458 172 175 459 459 117 176 460 460 173 120 461 461 174 121 462 462 116 177 463 463 172 175 464 464 119 178 465 465 176 123 466 466 175 122 467 467 177 132 468 468 119 178 469 469 175 122 470 470 120 179 471 471 178 134 472 472 129 180 473 473 130 181 474 474 178 134 475 475 179 133 476 476 180 182 477 477 130 181 478 478 179 133 479 479 181 135 480 480 131 183 481 481 180 182 482 482 133 184 483 483 183 137 484 484 182 136 485 485 184 185 486 486 133 184 487 487 182 136 488 488 135 186 489 489 184 185 490 490 185 138 491 491 117 176 492 492 185 138 493 493 173 120 494 494 212 187 495 495 186 188 496 496 142 189 497 497 213 190 498 498 188 191 499 499 141 192 500 500 144 193 501 501 189 194 502 502 143 195 503 503 145 196 504 504 186 188 505 505 191 145 506 506 190 144 507 507 146 197 508 508 192 146 509 509 147 198 510 510 191 145 511 511 193 147 512 512 148 199 513 513 192 146 514 514 146 197 515 515 149 200 516 516 193 147 517 517 195 149 518 518 148 199 519 519 196 151 520 520 194 150 521 521 197 152 522 522 149 200 523 523 195 149 524 524 150 201 525 525 198 202 526 526 196 151 527 527 151 203 528 528 199 204 529 529 153 205 530 530 206 206 531 531 200 207 532 532 154 208 533 533 207 209 534 534 198 202 535 535 152 210 536 536 140 211 537 537 181 156 538 538 187 212 539 539 141 192 540 540 202 158 541 541 157 213 542 542 132 214 543 543 202 159 544 544 183 137 545 545 118 215 546 546 203 160 547 547 176 123 548 548 154 208 549 549 203 161 550 550 159 216 551 551 155 217 552 552 174 162 553 553 201 218 554 554 109 109 555 555 205 110 556 556 204 112 557 557 110 111 558 558 208 153 559 559 204 112 560 560 108 108 561 561 209 154 562 562 205 110 563 563 199 204 564 564 206 206 565 565 153 205 566 566 201 218 567 567 207 209 568 568 155 217 569 569 97 115 570 570 210 99 571 571 96 113 572 572 98 98 573 573 214 142 574 574 210 99 575 575 97 115 576 576 215 143 577 577 211 97 578 578 187 212 579 579 212 187 580 580 140 211 581 581 189 194 582 582 213 190 583 583 143 195 584 584 3 0 585 585 0 5 586 586 1 1 587 587 8 3 588 588 3 0 589 589 2 2 590 590 5 7 591 591 11 12 592 592 7 8 593 593 9 10 594 594 13 17 595 595 8 3 596 596 3 0 597 597 8 3 598 598 10 11 599 599 10 11 600 600 17 24 601 601 11 12 602 602 20 13 603 603 12 124 604 604 7 8 605 605 16 14 606 606 13 17 607 607 9 10 608 608 28 16 609 609 15 21 610 610 13 17 611 611 18 18 612 612 16 14 613 613 14 15 614 614 31 20 615 615 17 24 616 616 10 11 617 617 19 22 618 618 21 30 619 619 18 18 620 620 48 23 621 621 20 13 622 622 11 12 623 623 22 25 624 624 21 30 625 625 19 22 626 626 24 27 627 627 21 30 628 628 22 25 629 629 25 29 630 630 18 18 631 631 21 30 632 632 23 28 633 633 27 37 634 634 26 31 635 635 26 31 636 636 29 34 637 637 25 29 638 638 25 29 639 639 29 34 640 640 30 32 641 641 31 20 642 642 15 21 643 643 28 16 644 644 33 33 645 645 32 35 646 646 30 32 647 647 32 35 648 648 46 53 649 649 31 20 650 650 26 31 651 651 34 41 652 652 33 33 653 653 35 36 654 654 34 41 655 655 26 31 656 656 37 38 657 657 34 41 658 658 35 36 659 659 38 40 660 660 33 33 661 661 34 41 662 662 36 39 663 663 40 44 664 664 39 42 665 665 39 42 666 666 44 48 667 667 38 40 668 668 43 43 669 669 42 46 670 670 39 42 671 671 94 45 672 672 44 48 673 673 39 42 674 674 58 47 675 675 41 52 676 676 38 40 677 677 47 49 678 678 42 46 679 679 43 43 680 680 49 51 681 681 46 53 682 682 32 35 683 683 48 23 684 684 17 24 685 685 31 20 686 686 53 54 687 687 48 23 688 688 46 53 689 689 53 54 690 690 50 56 691 691 20 13 692 692 51 55 693 693 12 124 694 694 20 13 695 695 50 56 696 696 54 59 697 697 52 57 698 698 61 58 699 699 55 65 700 700 52 57 701 701 54 59 702 702 50 56 703 703 53 54 704 704 57 61 705 705 56 60 706 706 53 54 707 707 57 61 708 708 49 51 709 709 41 52 710 710 60 62 711 711 56 60 712 712 57 61 713 713 95 64 714 714 59 63 715 715 57 61 716 716 60 62 717 717 61 58 718 718 54 59 719 719 60 62 720 720 67 73 721 721 62 67 722 722 62 67 723 723 65 71 724 724 64 68 725 725 68 70 726 726 66 78 727 727 64 68 728 728 60 62 729 729 59 63 730 730 69 72 731 731 65 71 732 732 62 67 733 733 67 73 734 734 71 75 735 735 70 74 736 736 67 73 737 737 65 71 738 738 70 74 739 739 72 76 740 740 73 77 741 741 74 79 742 742 66 78 743 743 72 76 744 744 75 80 745 745 73 77 746 746 73 77 747 747 2 2 748 748 1 1 749 749 75 80 750 750 4 4 751 751 2 2 752 752 9 10 753 753 4 4 754 754 75 80 755 755 72 76 756 756 77 83 757 757 76 81 758 758 78 82 759 759 14 15 760 760 9 10 761 761 71 75 762 762 77 83 763 763 72 76 764 764 77 83 765 765 81 86 766 766 78 82 767 767 79 84 768 768 80 19 769 769 14 15 770 770 83 85 771 771 79 84 772 772 78 82 773 773 81 86 774 774 77 83 775 775 71 75 776 776 93 88 777 777 82 87 778 778 71 75 779 779 82 87 780 780 90 94 781 781 83 85 782 782 19 22 783 783 80 19 784 784 79 84 785 785 86 90 786 786 85 26 787 787 19 22 788 788 88 91 789 789 86 90 790 790 84 89 791 791 91 93 792 792 89 95 793 793 88 91 794 794 91 93 795 795 87 92 796 796 83 85 797 797 91 93 798 798 47 49 799 799 45 50 800 800 92 96 801 801 47 49 802 802 91 93 803 803 92 96 804 804 90 94 805 805 82 87 806 806 59 63 807 807 95 64 808 808 93 88 809 809 94 45 810 810 42 46 811 811 47 49 812 812 93 88 813 813 95 64 814 814 94 45 815 815 94 45 816 816 95 64 817 817 58 47 818 818 38 40 819 819 41 52 820 820 32 35 821 821 83 85 822 822 87 92 823 823 84 89 824 824 25 29 825 825 28 16 826 826 16 14 827 827 13 17 828 828 15 21 829 829 10 11 830 830 211 97 831 831 99 100 832 832 98 98 833 833 99 100 834 834 100 102 835 835 101 101 836 836 100 102 837 837 102 104 838 838 103 103 839 839 102 104 840 840 104 148 841 841 105 105 842 842 105 105 843 843 104 148 844 844 106 106 845 845 107 107 846 846 106 106 847 847 108 108 848 848 205 110 849 849 111 155 850 850 110 111 851 851 96 113 852 852 112 157 853 853 113 114 854 854 61 58 855 855 62 67 856 856 113 116 857 857 5 7 858 858 115 117 859 859 114 6 860 860 110 111 861 861 111 155 862 862 114 118 863 863 0 5 864 864 172 175 865 865 173 120 866 866 174 121 867 867 172 175 868 868 0 5 869 869 6 9 870 870 7 8 871 871 175 122 872 872 12 124 873 873 177 132 874 874 175 122 875 875 22 25 876 876 85 26 877 877 160 125 878 878 161 126 879 879 162 165 880 880 23 28 881 881 23 28 882 882 162 165 883 883 163 127 884 884 35 36 885 885 27 37 886 886 163 127 887 887 164 128 888 888 165 168 889 889 36 39 890 890 36 39 891 891 165 168 892 892 166 129 893 893 43 43 894 894 40 44 895 895 166 129 896 896 43 43 897 897 167 130 898 898 168 131 899 899 51 55 900 900 178 134 901 901 177 132 902 902 51 55 903 903 52 57 904 904 179 133 905 905 55 65 906 906 180 182 907 907 179 133 908 908 181 135 909 909 180 182 910 910 55 65 911 911 63 69 912 912 64 68 913 913 182 136 914 914 66 78 915 915 184 185 916 916 182 136 917 917 185 138 918 918 184 185 919 919 66 78 920 920 74 79 921 921 1 1 922 922 173 120 923 923 86 90 924 924 169 139 925 925 160 125 926 926 88 91 927 927 170 141 928 928 169 139 929 929 88 91 930 930 89 95 931 931 171 140 932 932 45 50 933 933 168 131 934 934 171 140 935 935 214 142 936 936 187 212 937 937 96 113 938 938 215 143 939 939 189 194 940 940 99 100 941 941 99 100 942 942 189 194 943 943 190 144 944 944 191 145 945 945 186 188 946 946 98 98 947 947 100 102 948 948 190 144 949 949 192 146 950 950 101 101 951 951 103 103 952 952 193 147 953 953 192 146 954 954 194 150 955 955 104 148 956 956 195 149 957 957 193 147 958 958 103 103 959 959 106 106 960 960 104 148 961 961 194 150 962 962 107 107 963 963 197 152 964 964 195 149 965 965 196 151 966 966 198 202 967 967 108 108 968 968 109 109 969 969 199 204 970 970 197 152 971 971 208 153 972 972 199 204 973 973 109 109 974 974 209 154 975 975 201 218 976 976 111 155 977 977 96 113 978 978 187 212 979 979 181 156 980 980 202 158 981 981 188 191 982 982 97 115 983 983 63 69 984 984 183 137 985 985 202 159 986 986 6 9 987 987 176 123 988 988 203 160 989 989 203 161 990 990 200 207 991 991 110 111 992 992 111 155 993 993 201 218 994 994 174 162 995 995 136 163 996 996 121 164 997 997 161 126 998 998 121 164 999 999 122 219 1000 1000 162 165 1001 1001 162 165 1002 1002 122 219 1003 1003 123 166 1004 1004 123 166 1005 1005 124 167 1006 1006 164 128 1007 1007 124 167 1008 1008 125 220 1009 1009 165 168 1010 1010 165 168 1011 1011 125 220 1012 1012 126 169 1013 1013 126 169 1014 1014 127 171 1015 1015 167 130 1016 1016 128 170 1017 1017 168 131 1018 1018 167 130 1019 1019 169 139 1020 1020 137 172 1021 1021 136 163 1022 1022 137 172 1023 1023 169 139 1024 1024 170 141 1025 1025 139 174 1026 1026 138 173 1027 1027 170 141 1028 1028 168 131 1029 1029 128 170 1030 1030 139 174 1031 1031 172 175 1032 1032 116 177 1033 1033 117 176 1034 1034 174 121 1035 1035 158 221 1036 1036 116 177 1037 1037 119 178 1038 1038 118 215 1039 1039 176 123 1040 1040 177 132 1041 1041 120 179 1042 1042 119 178 1043 1043 120 179 1044 1044 177 132 1045 1045 178 134 1046 1046 130 181 1047 1047 129 180 1048 1048 178 134 1049 1049 180 182 1050 1050 131 183 1051 1051 130 181 1052 1052 181 135 1053 1053 156 222 1054 1054 131 183 1055 1055 133 184 1056 1056 132 214 1057 1057 183 137 1058 1058 184 185 1059 1059 134 223 1060 1060 133 184 1061 1061 135 186 1062 1062 134 223 1063 1063 184 185 1064 1064 117 176 1065 1065 135 186 1066 1066 185 138 1067 1067 212 187 1068 1068 214 142 1069 1069 186 188 1070 1070 213 190 1071 1071 215 143 1072 1072 188 191 1073 1073 144 193 1074 1074 190 144 1075 1075 189 194 1076 1076 145 196 1077 1077 142 189 1078 1078 186 188 1079 1079 190 144 1080 1080 144 193 1081 1081 146 197 1082 1082 147 198 1083 1083 145 196 1084 1084 191 145 1085 1085 148 199 1086 1086 194 150 1087 1087 192 146 1088 1088 149 200 1089 1089 147 198 1090 1090 193 147 1091 1091 148 199 1092 1092 150 201 1093 1093 196 151 1094 1094 197 152 1095 1095 151 203 1096 1096 149 200 1097 1097 150 201 1098 1098 152 210 1099 1099 198 202 1100 1100 151 203 1101 1101 197 152 1102 1102 199 204 1103 1103 206 206 1104 1104 208 153 1105 1105 200 207 1106 1106 207 209 1107 1107 209 154 1108 1108 198 202 1109 1109 140 211 1110 1110 156 224 1111 1111 181 156 1112 1112 141 192 1113 1113 188 191 1114 1114 202 158 1115 1115 132 214 1116 1116 157 225 1117 1117 202 159 1118 1118 118 215 1119 1119 159 226 1120 1120 203 160 1121 1121 154 208 1122 1122 200 207 1123 1123 203 161 1124 1124 155 217 1125 1125 158 227 1126 1126 174 162 1127 1127 109 109 1128 1128 108 108 1129 1129 205 110 1130 1130 110 111 1131 1131 200 207 1132 1132 208 153 1133 1133 108 108 1134 1134 198 202 1135 1135 209 154 1136 1136 199 204 1137 1137 208 153 1138 1138 206 206 1139 1139 201 218 1140 1140 209 154 1141 1141 207 209 1142 1142 97 115 1143 1143 211 97 1144 1144 210 99 1145 1145 98 98 1146 1146 186 188 1147 1147 214 142 1148 1148 97 115 1149 1149 188 191 1150 1150 215 143 1151 1151 187 212 1152 1152 214 142 1153 1153 212 187 1154 1154 189 194 1155 1155 215 143 1156 1156 213 190 1157 1157</p>
        </triangles>
      </mesh>
    </geometry>
  </library_geometries>
  <library_visual_scenes>
    <visual_scene id="Scene" name="Scene">
      <node id="Grater_Clean" name="Grater_Clean" type="NODE">
        <matrix sid="transform">0.01 0 0 0 0 0.01 0 0 0 0 0.01 0 0 0 0 1</matrix>
        <instance_geometry url="#Mesh_001-mesh" name="Grater_Clean">
          <bind_material>
            <technique_common>
              <instance_material symbol="Grater_Clean-material" target="#Grater_Clean-material">
                <bind_vertex_input semantic="UVChannel_1" input_semantic="TEXCOORD" input_set="0"/>
                <bind_vertex_input semantic="UVChannel_2" input_semantic="TEXCOORD" input_set="1"/>
              </instance_material>
            </technique_common>
          </bind_material>
        </instance_geometry>
      </node>
      <node id="Camera" name="Camera" type="NODE">
        <matrix sid="transform">0.6859207 -0.3240135 0.6515582 7.358891 0.7276763 0.3054208 -0.6141704 -6.925791 0 0.8953956 0.4452714 4.958309 0 0 0 1</matrix>
        <instance_camera url="#Camera-camera"/>
      </node>
      <node id="Light" name="Light" type="NODE">
        <matrix sid="transform">-0.2908646 -0.7711008 0.5663932 4.076245 0.9551712 -0.1998834 0.2183912 1.005454 -0.05518906 0.6045247 0.7946723 5.903862 0 0 0 1</matrix>
        <instance_light url="#Light-light"/>
      </node>
    </visual_scene>
  </library_visual_scenes>
  <scene>
    <instance_visual_scene url="#Scene"/>
  </scene>
</COLLADA>